<?xml version="1.0" encoding="UTF-8" standalone="no"?>
<!DOCTYPE svg PUBLIC "-//W3C//DTD SVG 1.1//EN"
 "http://www.w3.org/Graphics/SVG/1.1/DTD/svg11.dtd">
<!-- Generated by graphviz version 14.0.2 (20251019.1705)
 -->
<!-- Pages: 1 -->
<svg width="1092pt" height="755pt"
 viewBox="0.00 0.00 1092.00 755.00" xmlns="http://www.w3.org/2000/svg" xmlns:xlink="http://www.w3.org/1999/xlink">
<g id="graph0" class="graph" transform="scale(1 1) rotate(0) translate(4 750.5)">
<polygon fill="white" stroke="none" points="-4,4 -4,-750.5 1088.38,-750.5 1088.38,4 -4,4"/>
<g id="clust2" class="cluster">
<title>cluster_associated</title>
</g>
<!-- Building -->
<g id="node1" class="node">
<title>Building</title>
<g id="a_node1"><a xlink:href="../classes/Building__Building.md" xlink:title="&lt;TABLE&gt;">
<polygon fill="lightgray" stroke="none" points="212.12,-614.25 212.12,-630.5 529.88,-630.5 529.88,-614.25 212.12,-614.25"/>
<text xml:space="preserve" text-anchor="start" x="348.88" y="-618.1" font-family="Arial" font-size="12.00">Building</text>
<text xml:space="preserve" text-anchor="start" x="213.12" y="-601.85" font-family="Arial" font-size="12.00">builtAccordingToConstructionCode: xsd::string «only»</text>
<text xml:space="preserve" text-anchor="start" x="213.12" y="-585.6" font-family="Arial" font-size="12.00">numAboveGroundFloors: xsd::nonNegativeInteger «max 1»</text>
<text xml:space="preserve" text-anchor="start" x="213.12" y="-569.35" font-family="Arial" font-size="12.00">numBuildingUnits: xsd::nonNegativeInteger «max 1»</text>
<text xml:space="preserve" text-anchor="start" x="213.12" y="-553.1" font-family="Arial" font-size="12.00">numFloors: xsd::nonNegativeInteger «exactly 1»</text>
<text xml:space="preserve" text-anchor="start" x="213.12" y="-536.85" font-family="Arial" font-size="12.00">propertyRegistrationID: xsd::string «max 1»</text>
<polygon fill="none" stroke="black" points="211.12,-532 211.12,-631.5 530.88,-631.5 530.88,-532 211.12,-532"/>
</a>
</g>
</g>
<!-- BuildingOntologyThing -->
<g id="node2" class="node">
<title>BuildingOntologyThing</title>
<g id="a_node2"><a xlink:href="../_counters/Building__BuildingOntologyThing.md" xlink:title="&lt;TABLE&gt;">
<polygon fill="lightgray" stroke="none" points="190.5,-704.38 190.5,-720.62 315.5,-720.62 315.5,-704.38 190.5,-704.38"/>
<text xml:space="preserve" text-anchor="start" x="191.5" y="-708.23" font-family="Arial" font-size="12.00">BuildingOntologyThing</text>
<polygon fill="none" stroke="black" points="189.5,-703.38 189.5,-721.62 316.5,-721.62 316.5,-703.38 189.5,-703.38"/>
</a>
</g>
</g>
<!-- Building&#45;&gt;BuildingOntologyThing -->
<g id="edge1" class="edge">
<title>Building&#45;&gt;BuildingOntologyThing</title>
<path fill="none" stroke="black" d="M326.57,-631.23C309.31,-650.06 290.28,-670.82 275.9,-686.52"/>
<polygon fill="none" stroke="black" points="273.63,-683.82 269.45,-693.55 278.79,-688.55 273.63,-683.82"/>
</g>
<!-- infrastructure__InfrastructureElement -->
<g id="node3" class="node">
<title>infrastructure__InfrastructureElement</title>
<polygon fill="lightgray" stroke="none" points="335.88,-704.38 335.88,-720.62 526.12,-720.62 526.12,-704.38 335.88,-704.38"/>
<text xml:space="preserve" text-anchor="start" x="336.88" y="-708.23" font-family="Arial" font-size="12.00">infrastructure::InfrastructureElement</text>
<polygon fill="none" stroke="black" points="334.88,-703.38 334.88,-721.62 527.12,-721.62 527.12,-703.38 334.88,-703.38"/>
</g>
<!-- Building&#45;&gt;infrastructure__InfrastructureElement -->
<g id="edge2" class="edge">
<title>Building&#45;&gt;infrastructure__InfrastructureElement</title>
<path fill="none" stroke="black" d="M393.59,-631.23C401.96,-649.19 411.15,-668.91 418.33,-684.31"/>
<polygon fill="none" stroke="black" points="415.12,-685.71 422.52,-693.3 421.47,-682.75 415.12,-685.71"/>
</g>
<!-- Invis -->
<!-- Building&#45;&gt;Invis -->
<!-- BuildingUse -->
<g id="node6" class="node">
<title>BuildingUse</title>
<g id="a_node6"><a xlink:href="../_counters/Building__BuildingUse.md" xlink:title="&lt;TABLE&gt;">
<polygon fill="lightgray" stroke="none" points="17,-442.88 17,-459.12 85,-459.12 85,-442.88 17,-442.88"/>
<text xml:space="preserve" text-anchor="start" x="18" y="-446.73" font-family="Arial" font-size="12.00">BuildingUse</text>
<polygon fill="none" stroke="black" points="16,-441.88 16,-460.12 86,-460.12 86,-441.88 16,-441.88"/>
</a>
</g>
</g>
<!-- Building&#45;&gt;BuildingUse -->
<g id="edge16" class="edge">
<title>Building&#45;&gt;BuildingUse</title>
<path fill="none" stroke="black" d="M211.4,-542.81C194.74,-539.07 178.04,-535.4 162,-532 120.17,-523.14 98.8,-543.13 67.5,-514 58.27,-505.41 53.97,-492.28 52.06,-480.32"/>
<polygon fill="black" stroke="black" points="55.54,-480.03 51,-470.46 48.58,-480.77 55.54,-480.03"/>
<text xml:space="preserve" text-anchor="middle" x="87.75" y="-503.55" font-family="Arial" font-size="11.00"> use </text>
<text xml:space="preserve" text-anchor="middle" x="87.75" y="-490.05" font-family="Arial" font-size="11.00"> «only» &#160;</text>
</g>
<!-- cityUnits__Area -->
<g id="node7" class="node">
<title>cityUnits__Area</title>
<polygon fill="lightgray" stroke="none" points="68.38,-343.88 68.38,-360.12 147.62,-360.12 147.62,-343.88 68.38,-343.88"/>
<text xml:space="preserve" text-anchor="start" x="69.38" y="-347.73" font-family="Arial" font-size="12.00">cityUnits::Area</text>
<polygon fill="none" stroke="black" points="67.38,-342.88 67.38,-361.12 148.62,-361.12 148.62,-342.88 67.38,-342.88"/>
</g>
<!-- Building&#45;&gt;cityUnits__Area -->
<g id="edge12" class="edge">
<title>Building&#45;&gt;cityUnits__Area</title>
<path fill="none" stroke="black" d="M339.91,-532.03C318.44,-501.02 287.75,-461.49 254,-433 225.35,-408.82 188.26,-388.6 158.62,-374.54"/>
<polygon fill="black" stroke="black" points="160.4,-371.51 149.85,-370.47 157.45,-377.86 160.4,-371.51"/>
<text xml:space="preserve" text-anchor="middle" x="343.56" y="-454.05" font-family="Arial" font-size="11.00"> hasBuildingFloorArea </text>
<text xml:space="preserve" text-anchor="middle" x="343.56" y="-440.55" font-family="Arial" font-size="11.00"> «only» &#160;</text>
</g>
<!-- Building&#45;&gt;cityUnits__Area -->
<g id="edge13" class="edge">
<title>Building&#45;&gt;cityUnits__Area</title>
<path fill="none" stroke="black" d="M211.38,-537.77C177.28,-521.49 144.85,-499.25 122.5,-469 103.85,-443.75 102.44,-406.66 104.25,-381.26"/>
<polygon fill="black" stroke="black" points="107.73,-381.62 105.19,-371.34 100.76,-380.96 107.73,-381.62"/>
<text xml:space="preserve" text-anchor="middle" x="186.25" y="-454.05" font-family="Arial" font-size="11.00"> hasBuildingFootprintArea </text>
<text xml:space="preserve" text-anchor="middle" x="186.25" y="-440.55" font-family="Arial" font-size="11.00"> «only» &#160;</text>
</g>
<!-- cityUnits__Length -->
<g id="node8" class="node">
<title>cityUnits__Length</title>
<polygon fill="lightgray" stroke="none" points="58.75,-244.88 58.75,-261.12 149.25,-261.12 149.25,-244.88 58.75,-244.88"/>
<text xml:space="preserve" text-anchor="start" x="59.75" y="-248.72" font-family="Arial" font-size="12.00">cityUnits::Length</text>
<polygon fill="none" stroke="black" points="57.75,-243.88 57.75,-262.12 150.25,-262.12 150.25,-243.88 57.75,-243.88"/>
</g>
<!-- Building&#45;&gt;cityUnits__Length -->
<g id="edge14" class="edge">
<title>Building&#45;&gt;cityUnits__Length</title>
<path fill="none" stroke="black" d="M398.82,-532.12C412.41,-501.35 421.98,-462.04 402,-433 389.32,-414.57 374.96,-425.09 355,-415 272.4,-373.24 182.75,-311.29 136.19,-277.71"/>
<polygon fill="black" stroke="black" points="138.3,-274.92 128.15,-271.88 134.19,-280.59 138.3,-274.92"/>
<text xml:space="preserve" text-anchor="middle" x="401.5" y="-404.55" font-family="Arial" font-size="11.00"> hasBuildingHeight </text>
<text xml:space="preserve" text-anchor="middle" x="401.5" y="-391.05" font-family="Arial" font-size="11.00"> «only» &#160;</text>
</g>
<!-- ConstructionStatus -->
<g id="node9" class="node">
<title>ConstructionStatus</title>
<g id="a_node9"><a xlink:href="../_counters/Building__ConstructionStatus.md" xlink:title="&lt;TABLE&gt;">
<polygon fill="lightgray" stroke="none" points="45.38,-171.88 45.38,-188.12 148.62,-188.12 148.62,-171.88 45.38,-171.88"/>
<text xml:space="preserve" text-anchor="start" x="46.38" y="-175.72" font-family="Arial" font-size="12.00">ConstructionStatus</text>
<polygon fill="none" stroke="black" points="44.38,-170.88 44.38,-189.12 149.62,-189.12 149.62,-170.88 44.38,-170.88"/>
</a>
</g>
</g>
<!-- Building&#45;&gt;ConstructionStatus -->
<g id="edge21" class="edge">
<title>Building&#45;&gt;ConstructionStatus</title>
<path fill="none" stroke="black" d="M426.03,-532.27C445.2,-510.11 462,-482.11 462,-452 462,-452 462,-452 462,-252 462,-191.33 265.25,-181.48 160.65,-180.52"/>
<polygon fill="black" stroke="black" points="160.83,-177.02 150.81,-180.46 160.79,-184.02 160.83,-177.02"/>
<text xml:space="preserve" text-anchor="middle" x="519.38" y="-355.05" font-family="Arial" font-size="11.00"> hasConstructionStatus </text>
<text xml:space="preserve" text-anchor="middle" x="519.38" y="-341.55" font-family="Arial" font-size="11.00"> «max 1» &#160;</text>
</g>
<!-- Facility -->
<g id="node10" class="node">
<title>Facility</title>
<g id="a_node10"><a xlink:href="../_counters/Building__Facility.md" xlink:title="&lt;TABLE&gt;">
<polygon fill="lightgray" stroke="none" points="76.88,-98.88 76.88,-115.12 117.12,-115.12 117.12,-98.88 76.88,-98.88"/>
<text xml:space="preserve" text-anchor="start" x="77.88" y="-102.72" font-family="Arial" font-size="12.00">Facility</text>
<polygon fill="none" stroke="black" points="75.88,-97.88 75.88,-116.12 118.12,-116.12 118.12,-97.88 75.88,-97.88"/>
</a>
</g>
</g>
<!-- Building&#45;&gt;Facility -->
<g id="edge11" class="edge">
<title>Building&#45;&gt;Facility</title>
<path fill="none" stroke="black" d="M503.04,-532.09C556.12,-508.35 605,-479.13 605,-452 605,-452 605,-452 605,-179 605,-131.59 253.53,-113.93 135.29,-109.33"/>
<polygon fill="black" stroke="black" points="135.59,-105.84 125.47,-108.96 135.33,-112.83 135.59,-105.84"/>
<text xml:space="preserve" text-anchor="middle" x="642.88" y="-305.55" font-family="Arial" font-size="11.00"> buildingFacility </text>
<text xml:space="preserve" text-anchor="middle" x="642.88" y="-292.05" font-family="Arial" font-size="11.00"> «only» &#160;</text>
</g>
<!-- N2d935dd4b99942b189eb83ecb1d16916 -->
<g id="node12" class="node">
<title>N2d935dd4b99942b189eb83ecb1d16916</title>
<polygon fill="lightyellow" stroke="none" points="575.5,-703.38 575.5,-721.62 666.5,-721.62 666.5,-703.38 575.5,-703.38"/>
<text xml:space="preserve" text-anchor="start" x="577.5" y="-708.23" font-family="Arial" font-size="12.00">«intersectionOf»</text>
<polygon fill="none" stroke="black" points="575.5,-703.38 575.5,-721.62 666.5,-721.62 666.5,-703.38 575.5,-703.38"/>
</g>
<!-- Building&#45;&gt;N2d935dd4b99942b189eb83ecb1d16916 -->
<g id="edge20" class="edge">
<title>Building&#45;&gt;N2d935dd4b99942b189eb83ecb1d16916</title>
<path fill="none" stroke="black" d="M426.71,-631.38C447.45,-647.56 471.89,-664.49 496.25,-676.5 517.55,-687 542.51,-694.8 564.48,-700.33"/>
<polygon fill="black" stroke="black" points="563.64,-703.73 574.18,-702.66 565.28,-696.92 563.64,-703.73"/>
<text xml:space="preserve" text-anchor="middle" x="534.12" y="-666.05" font-family="Arial" font-size="11.00"> floorAreaRatio </text>
<text xml:space="preserve" text-anchor="middle" x="534.12" y="-652.55" font-family="Arial" font-size="11.00"> «max 1» &#160;</text>
</g>
<!-- N51969dd2a51b442a96907a1ee362e3cf -->
<g id="node15" class="node">
<title>N51969dd2a51b442a96907a1ee362e3cf</title>
<polygon fill="lightyellow" stroke="none" points="872.5,-703.38 872.5,-721.62 963.5,-721.62 963.5,-703.38 872.5,-703.38"/>
<text xml:space="preserve" text-anchor="start" x="874.5" y="-708.23" font-family="Arial" font-size="12.00">«intersectionOf»</text>
<polygon fill="none" stroke="black" points="872.5,-703.38 872.5,-721.62 963.5,-721.62 963.5,-703.38 872.5,-703.38"/>
</g>
<!-- Building&#45;&gt;N51969dd2a51b442a96907a1ee362e3cf -->
<g id="edge25" class="edge">
<title>Building&#45;&gt;N51969dd2a51b442a96907a1ee362e3cf</title>
<path fill="none" stroke="black" d="M530.5,-629.48C533.69,-630.18 536.86,-630.86 540,-631.5 603.62,-644.54 621.53,-635.74 685,-649.5 724.26,-658.01 732.52,-665.83 771.25,-676.5 800.88,-684.66 834.18,-692.69 861.55,-699"/>
<polygon fill="black" stroke="black" points="860.5,-702.35 871.03,-701.17 862.06,-695.53 860.5,-702.35"/>
<text xml:space="preserve" text-anchor="middle" x="821.12" y="-666.05" font-family="Arial" font-size="11.00"> windowToWallRatio </text>
<text xml:space="preserve" text-anchor="middle" x="821.12" y="-652.55" font-family="Arial" font-size="11.00"> «max 1» &#160;</text>
</g>
<!-- BuildingUnit -->
<g id="node5" class="node">
<title>BuildingUnit</title>
<g id="a_node5"><a xlink:href="../_counters/Building__BuildingUnit.md" xlink:title="&lt;TABLE&gt;">
<polygon fill="lightgray" stroke="none" points="17,-573.62 17,-589.88 85,-589.88 85,-573.62 17,-573.62"/>
<text xml:space="preserve" text-anchor="start" x="18" y="-577.48" font-family="Arial" font-size="12.00">BuildingUnit</text>
<polygon fill="none" stroke="black" points="16,-572.62 16,-590.88 86,-590.88 86,-572.62 16,-572.62"/>
</a>
</g>
</g>
<!-- Invis&#45;&gt;BuildingUnit -->
<!-- BuildingUnit&#45;&gt;Building -->
<g id="edge15" class="edge">
<title>BuildingUnit&#45;&gt;Building</title>
<path fill="none" stroke="black" d="M85.85,-581.75C114.42,-581.75 157.14,-581.75 200.87,-581.75"/>
<polygon fill="black" stroke="black" points="210.91,-585.25 200.91,-581.75 210.91,-578.25 210.91,-585.25"/>
<text xml:space="preserve" text-anchor="middle" x="148.56" y="-601.3" font-family="Arial" font-size="11.00"> inverse unitInBuilding </text>
<text xml:space="preserve" text-anchor="middle" x="148.56" y="-587.8" font-family="Arial" font-size="11.00"> «only» &#160;</text>
</g>
<!-- BuildingUnit&#45;&gt;BuildingUse -->
<!-- BuildingUse&#45;&gt;cityUnits__Area -->
<!-- cityUnits__Area&#45;&gt;cityUnits__Length -->
<!-- cityUnits__Length&#45;&gt;ConstructionStatus -->
<!-- ConstructionStatus&#45;&gt;Facility -->
<!-- iso21972__RatioIndicator -->
<g id="node11" class="node">
<title>iso21972__RatioIndicator</title>
<polygon fill="lightgray" stroke="none" points="17.12,-25.88 17.12,-42.12 148.88,-42.12 148.88,-25.88 17.12,-25.88"/>
<text xml:space="preserve" text-anchor="start" x="18.12" y="-29.73" font-family="Arial" font-size="12.00">iso21972::RatioIndicator</text>
<polygon fill="none" stroke="black" points="16.12,-24.88 16.12,-43.12 149.88,-43.12 149.88,-24.88 16.12,-24.88"/>
</g>
<!-- Facility&#45;&gt;iso21972__RatioIndicator -->
<!-- N2d935dd4b99942b189eb83ecb1d16916&#45;&gt;iso21972__RatioIndicator -->
<g id="edge19" class="edge">
<title>N2d935dd4b99942b189eb83ecb1d16916&#45;&gt;iso21972__RatioIndicator</title>
<path fill="none" stroke="black" stroke-dasharray="1,5" d="M666.15,-708.95C715.11,-705.2 788.86,-696.36 808,-676.5 837.24,-646.17 822,-624.88 822,-582.75 822,-582.75 822,-582.75 822,-106 822,-40.12 350.66,-34.18 160.83,-34.46"/>
<polygon fill="black" stroke="black" points="161.06,-30.96 151.07,-34.48 161.08,-37.96 161.06,-30.96"/>
<text xml:space="preserve" text-anchor="middle" x="841.88" y="-298.8" font-family="Arial" font-size="11.00">member</text>
</g>
<!-- N030696be0b124facbf19eb5cbb5b135f -->
<g id="node13" class="node">
<title>N030696be0b124facbf19eb5cbb5b135f</title>
<polygon fill="lightyellow" stroke="none" points="548.62,-572.62 548.62,-590.88 625.38,-590.88 625.38,-572.62 548.62,-572.62"/>
<text xml:space="preserve" text-anchor="start" x="550.62" y="-577.48" font-family="Arial" font-size="12.00">ComplexExpr</text>
<polygon fill="none" stroke="black" points="548.62,-572.62 548.62,-590.88 625.38,-590.88 625.38,-572.62 548.62,-572.62"/>
</g>
<!-- N2d935dd4b99942b189eb83ecb1d16916&#45;&gt;N030696be0b124facbf19eb5cbb5b135f -->
<g id="edge17" class="edge">
<title>N2d935dd4b99942b189eb83ecb1d16916&#45;&gt;N030696be0b124facbf19eb5cbb5b135f</title>
<path fill="none" stroke="black" stroke-dasharray="1,5" d="M596.22,-694.76C590.58,-689.62 585.34,-683.46 582.25,-676.5 573.04,-655.78 575.25,-629.89 579.18,-610.57"/>
<polygon fill="black" stroke="black" points="582.55,-611.51 581.42,-600.97 575.74,-609.92 582.55,-611.51"/>
<text xml:space="preserve" text-anchor="middle" x="602.12" y="-659.3" font-family="Arial" font-size="11.00">member</text>
</g>
<!-- Na32312e277a144e1b9ef4180c30ecb24 -->
<g id="node14" class="node">
<title>Na32312e277a144e1b9ef4180c30ecb24</title>
<polygon fill="lightyellow" stroke="none" points="643.62,-572.62 643.62,-590.88 720.38,-590.88 720.38,-572.62 643.62,-572.62"/>
<text xml:space="preserve" text-anchor="start" x="645.62" y="-577.48" font-family="Arial" font-size="12.00">ComplexExpr</text>
<polygon fill="none" stroke="black" points="643.62,-572.62 643.62,-590.88 720.38,-590.88 720.38,-572.62 643.62,-572.62"/>
</g>
<!-- N2d935dd4b99942b189eb83ecb1d16916&#45;&gt;Na32312e277a144e1b9ef4180c30ecb24 -->
<g id="edge18" class="edge">
<title>N2d935dd4b99942b189eb83ecb1d16916&#45;&gt;Na32312e277a144e1b9ef4180c30ecb24</title>
<path fill="none" stroke="black" stroke-dasharray="1,5" d="M626.91,-694.67C631.49,-682.06 638.24,-664.47 645.25,-649.5 651.54,-636.06 659.38,-621.59 666.19,-609.57"/>
<polygon fill="black" stroke="black" points="669.15,-611.44 671.1,-601.03 663.08,-607.95 669.15,-611.44"/>
<text xml:space="preserve" text-anchor="middle" x="665.12" y="-659.3" font-family="Arial" font-size="11.00">member</text>
</g>
<!-- N51969dd2a51b442a96907a1ee362e3cf&#45;&gt;iso21972__RatioIndicator -->
<g id="edge24" class="edge">
<title>N51969dd2a51b442a96907a1ee362e3cf&#45;&gt;iso21972__RatioIndicator</title>
<path fill="none" stroke="black" stroke-dasharray="1,5" d="M910.84,-694.77C901.13,-670.54 885,-624.05 885,-582.75 885,-582.75 885,-582.75 885,-106 885,-102.17 785.37,-71.69 776,-70 660.05,-49.07 316.7,-39.69 161.15,-36.43"/>
<polygon fill="black" stroke="black" points="161.42,-32.94 151.35,-36.23 161.27,-39.93 161.42,-32.94"/>
<text xml:space="preserve" text-anchor="middle" x="904.88" y="-298.8" font-family="Arial" font-size="11.00">member</text>
</g>
<!-- N09c52e982e8243c6918a31a84a6fc7f8 -->
<g id="node16" class="node">
<title>N09c52e982e8243c6918a31a84a6fc7f8</title>
<polygon fill="lightyellow" stroke="none" points="912.62,-572.62 912.62,-590.88 989.38,-590.88 989.38,-572.62 912.62,-572.62"/>
<text xml:space="preserve" text-anchor="start" x="914.62" y="-577.48" font-family="Arial" font-size="12.00">ComplexExpr</text>
<polygon fill="none" stroke="black" points="912.62,-572.62 912.62,-590.88 989.38,-590.88 989.38,-572.62 912.62,-572.62"/>
</g>
<!-- N51969dd2a51b442a96907a1ee362e3cf&#45;&gt;N09c52e982e8243c6918a31a84a6fc7f8 -->
<g id="edge22" class="edge">
<title>N51969dd2a51b442a96907a1ee362e3cf&#45;&gt;N09c52e982e8243c6918a31a84a6fc7f8</title>
<path fill="none" stroke="black" stroke-dasharray="1,5" d="M922.31,-694.67C927.8,-673.27 937.34,-636.04 943.9,-610.43"/>
<polygon fill="black" stroke="black" points="947.22,-611.61 946.31,-601.05 940.44,-609.87 947.22,-611.61"/>
<text xml:space="preserve" text-anchor="middle" x="953.39" y="-659.3" font-family="Arial" font-size="11.00">member</text>
</g>
<!-- Nec3eb0f5cda04620ad06b939395830fd -->
<g id="node17" class="node">
<title>Nec3eb0f5cda04620ad06b939395830fd</title>
<polygon fill="lightyellow" stroke="none" points="1007.62,-572.62 1007.62,-590.88 1084.38,-590.88 1084.38,-572.62 1007.62,-572.62"/>
<text xml:space="preserve" text-anchor="start" x="1009.62" y="-577.48" font-family="Arial" font-size="12.00">ComplexExpr</text>
<polygon fill="none" stroke="black" points="1007.62,-572.62 1007.62,-590.88 1084.38,-590.88 1084.38,-572.62 1007.62,-572.62"/>
</g>
<!-- N51969dd2a51b442a96907a1ee362e3cf&#45;&gt;Nec3eb0f5cda04620ad06b939395830fd -->
<g id="edge23" class="edge">
<title>N51969dd2a51b442a96907a1ee362e3cf&#45;&gt;Nec3eb0f5cda04620ad06b939395830fd</title>
<path fill="none" stroke="black" stroke-dasharray="1,5" d="M951.76,-694.61C960.47,-689.44 969.5,-683.3 977,-676.5 998.69,-656.86 1017.91,-629.46 1030.52,-609.35"/>
<polygon fill="black" stroke="black" points="1033.48,-611.22 1035.7,-600.87 1027.5,-607.57 1033.48,-611.22"/>
<text xml:space="preserve" text-anchor="middle" x="1020.82" y="-659.3" font-family="Arial" font-size="11.00">member</text>
</g>
</g>
</svg>
