<?xml version="1.0" encoding="UTF-8" standalone="no"?>
<!DOCTYPE svg PUBLIC "-//W3C//DTD SVG 1.1//EN"
 "http://www.w3.org/Graphics/SVG/1.1/DTD/svg11.dtd">
<!-- Generated by graphviz version 14.0.2 (20251019.1705)
 -->
<!-- Pages: 1 -->
<svg width="688pt" height="767pt"
 viewBox="0.00 0.00 688.00 767.00" xmlns="http://www.w3.org/2000/svg" xmlns:xlink="http://www.w3.org/1999/xlink">
<g id="graph0" class="graph" transform="scale(1 1) rotate(0) translate(4 762.5)">
<polygon fill="white" stroke="none" points="-4,4 -4,-762.5 683.88,-762.5 683.88,4 -4,4"/>
<g id="clust2" class="cluster">
<title>cluster_associated</title>
</g>
<!-- Clause -->
<g id="node1" class="node">
<title>Clause</title>
<g id="a_node1"><a xlink:href="../_counters/Bylaw__Clause.md" xlink:title="&lt;TABLE&gt;">
<polygon fill="lightgray" stroke="none" points="360.75,-549.38 360.75,-565.62 401,-565.62 401,-549.38 360.75,-549.38"/>
<text xml:space="preserve" text-anchor="start" x="361.75" y="-553.23" font-family="Arial" font-size="12.00">Clause</text>
<polygon fill="none" stroke="black" points="359.75,-548.38 359.75,-566.62 402,-566.62 402,-548.38 359.75,-548.38"/>
</a>
</g>
</g>
<!-- Clause&#45;&gt;Clause -->
<g id="edge11" class="edge">
<title>Clause&#45;&gt;Clause</title>
<path fill="none" stroke="black" d="M407.67,-565.5C417.66,-565.76 425.88,-563.09 425.88,-557.5 425.88,-554.27 423.13,-552.01 418.88,-550.73"/>
<polygon fill="black" stroke="black" points="419.5,-547.28 409.17,-549.67 418.73,-554.24 419.5,-547.28"/>
<text xml:space="preserve" text-anchor="middle" x="454.38" y="-560.55" font-family="Arial" font-size="11.00"> hasClause </text>
<text xml:space="preserve" text-anchor="middle" x="454.38" y="-547.05" font-family="Arial" font-size="11.00"> «only» &#160;</text>
</g>
<!-- BylawOntologyThing -->
<g id="node2" class="node">
<title>BylawOntologyThing</title>
<g id="a_node2"><a xlink:href="../_counters/Bylaw__BylawOntologyThing.md" xlink:title="&lt;TABLE&gt;">
<polygon fill="lightgray" stroke="none" points="1,-690.38 1,-706.62 114.75,-706.62 114.75,-690.38 1,-690.38"/>
<text xml:space="preserve" text-anchor="start" x="2" y="-694.23" font-family="Arial" font-size="12.00">BylawOntologyThing</text>
<polygon fill="none" stroke="black" points="0,-689.38 0,-707.62 115.75,-707.62 115.75,-689.38 0,-689.38"/>
</a>
</g>
</g>
<!-- Clause&#45;&gt;BylawOntologyThing -->
<g id="edge1" class="edge">
<title>Clause&#45;&gt;BylawOntologyThing</title>
<path fill="none" stroke="black" d="M353.98,-563.06C305.65,-572.07 201.98,-595.12 124.88,-638.5 108.9,-647.49 93.38,-660.77 81.31,-672.45"/>
<polygon fill="none" stroke="black" points="78.83,-669.98 74.24,-679.53 83.79,-674.93 78.83,-669.98"/>
</g>
<!-- Invis -->
<!-- Clause&#45;&gt;Invis -->
<!-- N0e3db3945cf8476284a12a26eaf6dc92 -->
<g id="node11" class="node">
<title>N0e3db3945cf8476284a12a26eaf6dc92</title>
<polygon fill="lightgray" stroke="none" points="135.25,-727 135.25,-757.5 460.5,-757.5 460.5,-727 135.25,-727"/>
<text xml:space="preserve" text-anchor="start" x="275.38" y="-745.1" font-family="Arial" font-size="12.00">«Enum»</text>
<text xml:space="preserve" text-anchor="start" x="136.25" y="-730.85" font-family="Arial" font-size="12.00">Enum: bylaw, penalty, repeal, schedule, severance, transition</text>
<text xml:space="preserve" text-anchor="start" x="148.25" y="-714.6" font-family="Arial" font-size="12.00">+ bylaw</text>
<text xml:space="preserve" text-anchor="start" x="144.5" y="-700.35" font-family="Arial" font-size="12.00">+ penalty</text>
<text xml:space="preserve" text-anchor="start" x="147.12" y="-686.1" font-family="Arial" font-size="12.00">+ repeal</text>
<text xml:space="preserve" text-anchor="start" x="139.62" y="-671.85" font-family="Arial" font-size="12.00">+ schedule</text>
<text xml:space="preserve" text-anchor="start" x="136.25" y="-657.6" font-family="Arial" font-size="12.00">+ severance</text>
<text xml:space="preserve" text-anchor="start" x="139.62" y="-643.35" font-family="Arial" font-size="12.00">+ transition</text>
<polygon fill="none" stroke="black" points="134.25,-638.5 134.25,-758.5 461.5,-758.5 461.5,-638.5 134.25,-638.5"/>
</g>
<!-- Clause&#45;&gt;N0e3db3945cf8476284a12a26eaf6dc92 -->
<g id="edge10" class="edge">
<title>Clause&#45;&gt;N0e3db3945cf8476284a12a26eaf6dc92</title>
<path fill="none" stroke="black" d="M354.23,-562.18C335.31,-566.33 311.16,-575.09 298.88,-593.5 292.16,-603.56 288.89,-615.48 287.72,-627.59"/>
<polygon fill="black" stroke="black" points="284.25,-627.06 287.28,-637.21 291.24,-627.39 284.25,-627.06"/>
<text xml:space="preserve" text-anchor="middle" x="328.88" y="-610.05" font-family="Arial" font-size="11.00"> clauseType </text>
<text xml:space="preserve" text-anchor="middle" x="328.88" y="-596.55" font-family="Arial" font-size="11.00"> «some» &#160;</text>
</g>
<!-- N1aae571bf78f4941a4e4943a266616cb -->
<g id="node12" class="node">
<title>N1aae571bf78f4941a4e4943a266616cb</title>
<polygon fill="lightyellow" stroke="none" points="479.12,-689.38 479.12,-707.62 538.62,-707.62 538.62,-689.38 479.12,-689.38"/>
<text xml:space="preserve" text-anchor="start" x="481.12" y="-694.23" font-family="Arial" font-size="12.00">«unionOf»</text>
<polygon fill="none" stroke="black" points="479.12,-689.38 479.12,-707.62 538.62,-707.62 538.62,-689.38 479.12,-689.38"/>
</g>
<!-- Clause&#45;&gt;N1aae571bf78f4941a4e4943a266616cb -->
<g id="edge14" class="edge">
<title>Clause&#45;&gt;N1aae571bf78f4941a4e4943a266616cb</title>
<path fill="none" stroke="black" d="M401.9,-575.31C408.5,-580.88 415.67,-587.26 421.88,-593.5 432.94,-604.63 432.99,-609.97 444.62,-620.5 455.11,-630 461.02,-628.35 470.88,-638.5 480.14,-648.04 488.41,-660.16 494.85,-670.94"/>
<polygon fill="black" stroke="black" points="491.69,-672.46 499.69,-679.41 497.77,-668.99 491.69,-672.46"/>
<text xml:space="preserve" text-anchor="middle" x="505.75" y="-610.05" font-family="Arial" font-size="11.00"> partwhole::properPartOf </text>
<text xml:space="preserve" text-anchor="middle" x="505.75" y="-596.55" font-family="Arial" font-size="11.00"> «exactly 1» &#160;</text>
</g>
<!-- bylaw -->
<g id="node4" class="node">
<title>bylaw</title>
<polygon fill="lightgray" stroke="none" points="619.12,-463.88 619.12,-480.12 652.62,-480.12 652.62,-463.88 619.12,-463.88"/>
<text xml:space="preserve" text-anchor="start" x="620.12" y="-467.73" font-family="Arial" font-size="12.00">bylaw</text>
<polygon fill="none" stroke="black" points="618.12,-462.88 618.12,-481.12 653.62,-481.12 653.62,-462.88 618.12,-462.88"/>
</g>
<!-- Invis&#45;&gt;bylaw -->
<!-- Law -->
<g id="node5" class="node">
<title>Law</title>
<g id="a_node5"><a xlink:href="../_counters/Bylaw__Law.md" xlink:title="&lt;TABLE&gt;">
<polygon fill="lightgray" stroke="none" points="621.62,-390.88 621.62,-407.12 646.12,-407.12 646.12,-390.88 621.62,-390.88"/>
<text xml:space="preserve" text-anchor="start" x="622.62" y="-394.73" font-family="Arial" font-size="12.00">Law</text>
<polygon fill="none" stroke="black" points="620.62,-389.88 620.62,-408.12 647.12,-408.12 647.12,-389.88 620.62,-389.88"/>
</a>
</g>
</g>
<!-- bylaw&#45;&gt;Law -->
<!-- penalty -->
<g id="node6" class="node">
<title>penalty</title>
<polygon fill="lightgray" stroke="none" points="613.38,-317.88 613.38,-334.12 654.38,-334.12 654.38,-317.88 613.38,-317.88"/>
<text xml:space="preserve" text-anchor="start" x="614.38" y="-321.73" font-family="Arial" font-size="12.00">penalty</text>
<polygon fill="none" stroke="black" points="612.38,-316.88 612.38,-335.12 655.38,-335.12 655.38,-316.88 612.38,-316.88"/>
</g>
<!-- Law&#45;&gt;penalty -->
<!-- repeal -->
<g id="node7" class="node">
<title>repeal</title>
<polygon fill="lightgray" stroke="none" points="616,-244.88 616,-261.12 651.75,-261.12 651.75,-244.88 616,-244.88"/>
<text xml:space="preserve" text-anchor="start" x="617" y="-248.72" font-family="Arial" font-size="12.00">repeal</text>
<polygon fill="none" stroke="black" points="615,-243.88 615,-262.12 652.75,-262.12 652.75,-243.88 615,-243.88"/>
</g>
<!-- penalty&#45;&gt;repeal -->
<!-- schedule -->
<g id="node8" class="node">
<title>schedule</title>
<polygon fill="lightgray" stroke="none" points="608.5,-171.88 608.5,-188.12 659.25,-188.12 659.25,-171.88 608.5,-171.88"/>
<text xml:space="preserve" text-anchor="start" x="609.5" y="-175.72" font-family="Arial" font-size="12.00">schedule</text>
<polygon fill="none" stroke="black" points="607.5,-170.88 607.5,-189.12 660.25,-189.12 660.25,-170.88 607.5,-170.88"/>
</g>
<!-- repeal&#45;&gt;schedule -->
<!-- severance -->
<g id="node9" class="node">
<title>severance</title>
<polygon fill="lightgray" stroke="none" points="605.12,-98.88 605.12,-115.12 662.62,-115.12 662.62,-98.88 605.12,-98.88"/>
<text xml:space="preserve" text-anchor="start" x="606.12" y="-102.72" font-family="Arial" font-size="12.00">severance</text>
<polygon fill="none" stroke="black" points="604.12,-97.88 604.12,-116.12 663.62,-116.12 663.62,-97.88 604.12,-97.88"/>
</g>
<!-- schedule&#45;&gt;severance -->
<!-- transition -->
<g id="node10" class="node">
<title>transition</title>
<polygon fill="lightgray" stroke="none" points="608.5,-25.88 608.5,-42.12 659.25,-42.12 659.25,-25.88 608.5,-25.88"/>
<text xml:space="preserve" text-anchor="start" x="609.5" y="-29.73" font-family="Arial" font-size="12.00">transition</text>
<polygon fill="none" stroke="black" points="607.5,-24.88 607.5,-43.12 660.25,-43.12 660.25,-24.88 607.5,-24.88"/>
</g>
<!-- severance&#45;&gt;transition -->
<!-- N1aae571bf78f4941a4e4943a266616cb&#45;&gt;Clause -->
<g id="edge12" class="edge">
<title>N1aae571bf78f4941a4e4943a266616cb&#45;&gt;Clause</title>
<path fill="none" stroke="black" stroke-dasharray="1,5" d="M502.36,-680.56C496.28,-667.05 485.86,-648.74 470.88,-638.5 437.64,-615.8 407.91,-651.4 382.12,-620.5 374.42,-611.26 373.2,-598.28 374.28,-586.57"/>
<polygon fill="black" stroke="black" points="377.69,-587.39 375.73,-576.98 370.77,-586.34 377.69,-587.39"/>
<text xml:space="preserve" text-anchor="middle" x="402" y="-603.3" font-family="Arial" font-size="11.00">member</text>
</g>
<!-- N1aae571bf78f4941a4e4943a266616cb&#45;&gt;Law -->
<g id="edge13" class="edge">
<title>N1aae571bf78f4941a4e4943a266616cb&#45;&gt;Law</title>
<path fill="none" stroke="black" stroke-dasharray="1,5" d="M525.2,-680.61C538.47,-665.91 556.62,-643.42 566.88,-620.5 597.68,-551.64 571.98,-524.09 599.88,-454 603.7,-444.38 609.27,-434.59 614.79,-426.04"/>
<polygon fill="black" stroke="black" points="617.59,-428.14 620.3,-417.9 611.79,-424.22 617.59,-428.14"/>
<text xml:space="preserve" text-anchor="middle" x="606.01" y="-511.05" font-family="Arial" font-size="11.00">member</text>
</g>
</g>
</svg>
