<?xml version="1.0" encoding="UTF-8" standalone="no"?>
<!DOCTYPE svg PUBLIC "-//W3C//DTD SVG 1.1//EN"
 "http://www.w3.org/Graphics/SVG/1.1/DTD/svg11.dtd">
<!-- Generated by graphviz version 14.0.2 (20251019.1705)
 -->
<!-- Pages: 1 -->
<svg width="699pt" height="870pt"
 viewBox="0.00 0.00 699.00 870.00" xmlns="http://www.w3.org/2000/svg" xmlns:xlink="http://www.w3.org/1999/xlink">
<g id="graph0" class="graph" transform="scale(1 1) rotate(0) translate(4 865.75)">
<polygon fill="white" stroke="none" points="-4,4 -4,-865.75 695.25,-865.75 695.25,4 -4,4"/>
<g id="clust2" class="cluster">
<title>cluster_associated</title>
</g>
<!-- Bylaw -->
<g id="node1" class="node">
<title>Bylaw</title>
<g id="a_node1"><a xlink:href="../classes/Bylaw__Bylaw.md" xlink:title="&lt;TABLE&gt;">
<polygon fill="lightgray" stroke="none" points="341.5,-695.38 341.5,-711.62 376.5,-711.62 376.5,-695.38 341.5,-695.38"/>
<text xml:space="preserve" text-anchor="start" x="342.5" y="-699.23" font-family="Arial" font-size="12.00">Bylaw</text>
<polygon fill="none" stroke="black" points="340.5,-694.38 340.5,-712.62 377.5,-712.62 377.5,-694.38 340.5,-694.38"/>
</a>
</g>
</g>
<!-- Law -->
<g id="node2" class="node">
<title>Law</title>
<g id="a_node2"><a xlink:href="../_counters/Bylaw__Law.md" xlink:title="&lt;TABLE&gt;">
<polygon fill="lightgray" stroke="none" points="361.75,-815 361.75,-831.25 386.25,-831.25 386.25,-815 361.75,-815"/>
<text xml:space="preserve" text-anchor="start" x="362.75" y="-818.85" font-family="Arial" font-size="12.00">Law</text>
<polygon fill="none" stroke="black" points="360.75,-814 360.75,-832.25 387.25,-832.25 387.25,-814 360.75,-814"/>
</a>
</g>
</g>
<!-- Bylaw&#45;&gt;Law -->
<g id="edge1" class="edge">
<title>Bylaw&#45;&gt;Law</title>
<path fill="none" stroke="black" d="M361.15,-721.32C363.56,-740.26 367.52,-771.35 370.41,-794"/>
<polygon fill="none" stroke="black" points="366.92,-794.29 371.66,-803.77 373.87,-793.41 366.92,-794.29"/>
</g>
<!-- Invis -->
<!-- Bylaw&#45;&gt;Invis -->
<!-- i72__City -->
<g id="node9" class="node">
<title>i72__City</title>
<polygon fill="lightgray" stroke="none" points="68.25,-244.88 68.25,-261.12 113.75,-261.12 113.75,-244.88 68.25,-244.88"/>
<text xml:space="preserve" text-anchor="start" x="69.25" y="-248.72" font-family="Arial" font-size="12.00">i72::City</text>
<polygon fill="none" stroke="black" points="67.25,-243.88 67.25,-262.12 114.75,-262.12 114.75,-243.88 67.25,-243.88"/>
</g>
<!-- Bylaw&#45;&gt;i72__City -->
<g id="edge19" class="edge">
<title>Bylaw&#45;&gt;i72__City</title>
<path fill="none" stroke="black" stroke-dasharray="5,2" d="M359,-685.57C359,-671.19 359,-649.99 359,-631.5 359,-631.5 359,-631.5 359,-508 359,-382.13 201.35,-299.93 127.88,-268.45"/>
<polygon fill="black" stroke="black" points="129.65,-265.39 119.07,-264.76 126.94,-271.85 129.65,-265.39"/>
<text xml:space="preserve" text-anchor="middle" x="440.72" y="-475.05" font-family="Arial" font-size="11.00"> onProperty: legislationJurisdiction </text>
<text xml:space="preserve" text-anchor="middle" x="440.72" y="-461.55" font-family="Arial" font-size="11.00"> «max 1» &#160;</text>
</g>
<!-- Ne525fe5cc55c4c2380092b88ecde3696 -->
<g id="node13" class="node">
<title>Ne525fe5cc55c4c2380092b88ecde3696</title>
<polygon fill="lightyellow" stroke="none" points="175.25,-814 175.25,-832.25 234.75,-832.25 234.75,-814 175.25,-814"/>
<text xml:space="preserve" text-anchor="start" x="177.25" y="-818.85" font-family="Arial" font-size="12.00">«unionOf»</text>
<polygon fill="none" stroke="black" points="175.25,-814 175.25,-832.25 234.75,-832.25 234.75,-814 175.25,-814"/>
</g>
<!-- Bylaw&#45;&gt;Ne525fe5cc55c4c2380092b88ecde3696 -->
<g id="edge17" class="edge">
<title>Bylaw&#45;&gt;Ne525fe5cc55c4c2380092b88ecde3696</title>
<path fill="none" stroke="black" d="M337.61,-721.31C330.89,-726.88 323.58,-733.25 317.25,-739.5 305.98,-750.62 306.02,-756.19 294,-766.5 278.89,-779.47 260.45,-791.51 244.29,-801.04"/>
<polygon fill="black" stroke="black" points="242.8,-797.86 235.88,-805.89 246.29,-803.93 242.8,-797.86"/>
<text xml:space="preserve" text-anchor="middle" x="338.62" y="-756.05" font-family="Arial" font-size="11.00"> impacts </text>
<text xml:space="preserve" text-anchor="middle" x="338.62" y="-742.55" font-family="Arial" font-size="11.00"> «only» &#160;</text>
</g>
<!-- Nf8179bc16bbb4b1684fa0966df01a77d -->
<g id="node14" class="node">
<title>Nf8179bc16bbb4b1684fa0966df01a77d</title>
<polygon fill="lightgray" stroke="none" points="419.75,-830.25 419.75,-860.75 690.25,-860.75 690.25,-830.25 419.75,-830.25"/>
<text xml:space="preserve" text-anchor="start" x="532.5" y="-848.35" font-family="Arial" font-size="12.00">«Enum»</text>
<text xml:space="preserve" text-anchor="start" x="420.75" y="-834.1" font-family="Arial" font-size="12.00">Enum: amendingBylaw, mainBylaw, revisionBylaw</text>
<text xml:space="preserve" text-anchor="start" x="420.75" y="-817.85" font-family="Arial" font-size="12.00">+ amendingBylaw</text>
<text xml:space="preserve" text-anchor="start" x="434.25" y="-803.6" font-family="Arial" font-size="12.00">+ mainBylaw</text>
<text xml:space="preserve" text-anchor="start" x="426.38" y="-789.35" font-family="Arial" font-size="12.00">+ revisionBylaw</text>
<polygon fill="none" stroke="black" points="418.75,-784.5 418.75,-861.75 691.25,-861.75 691.25,-784.5 418.75,-784.5"/>
</g>
<!-- Bylaw&#45;&gt;Nf8179bc16bbb4b1684fa0966df01a77d -->
<g id="edge18" class="edge">
<title>Bylaw&#45;&gt;Nf8179bc16bbb4b1684fa0966df01a77d</title>
<path fill="none" stroke="black" d="M385.84,-720.61C410.71,-735.53 448.83,-758.41 482.59,-778.67"/>
<polygon fill="black" stroke="black" points="480.77,-781.66 491.15,-783.81 484.37,-775.66 480.77,-781.66"/>
<text xml:space="preserve" text-anchor="middle" x="495.25" y="-756.05" font-family="Arial" font-size="11.00"> legislationType </text>
<text xml:space="preserve" text-anchor="middle" x="495.25" y="-742.55" font-family="Arial" font-size="11.00"> «only» &#160;</text>
</g>
<!-- activity__Activity -->
<g id="node4" class="node">
<title>activity__Activity</title>
<polygon fill="lightgray" stroke="none" points="58.5,-622.38 58.5,-638.62 141.5,-638.62 141.5,-622.38 58.5,-622.38"/>
<text xml:space="preserve" text-anchor="start" x="59.5" y="-626.23" font-family="Arial" font-size="12.00">activity::Activity</text>
<polygon fill="none" stroke="black" points="57.5,-621.38 57.5,-639.62 142.5,-639.62 142.5,-621.38 57.5,-621.38"/>
</g>
<!-- Invis&#45;&gt;activity__Activity -->
<!-- amendingBylaw -->
<g id="node5" class="node">
<title>amendingBylaw</title>
<polygon fill="lightgray" stroke="none" points="47.88,-536.88 47.88,-553.12 136.12,-553.12 136.12,-536.88 47.88,-536.88"/>
<text xml:space="preserve" text-anchor="start" x="48.88" y="-540.73" font-family="Arial" font-size="12.00">amendingBylaw</text>
<polygon fill="none" stroke="black" points="46.88,-535.88 46.88,-554.12 137.12,-554.12 137.12,-535.88 46.88,-535.88"/>
</g>
<!-- activity__Activity&#45;&gt;amendingBylaw -->
<!-- cdmOrg__Organization -->
<g id="node6" class="node">
<title>cdmOrg__Organization</title>
<polygon fill="lightgray" stroke="none" points="21.88,-463.88 21.88,-480.12 140.12,-480.12 140.12,-463.88 21.88,-463.88"/>
<text xml:space="preserve" text-anchor="start" x="22.88" y="-467.73" font-family="Arial" font-size="12.00">cdmOrg::Organization</text>
<polygon fill="none" stroke="black" points="20.88,-462.88 20.88,-481.12 141.12,-481.12 141.12,-462.88 20.88,-462.88"/>
</g>
<!-- amendingBylaw&#45;&gt;cdmOrg__Organization -->
<!-- cdmPerson__Person -->
<g id="node7" class="node">
<title>cdmPerson__Person</title>
<polygon fill="lightgray" stroke="none" points="29.5,-390.88 29.5,-407.12 136.5,-407.12 136.5,-390.88 29.5,-390.88"/>
<text xml:space="preserve" text-anchor="start" x="30.5" y="-394.73" font-family="Arial" font-size="12.00">cdmPerson::Person</text>
<polygon fill="none" stroke="black" points="28.5,-389.88 28.5,-408.12 137.5,-408.12 137.5,-389.88 28.5,-389.88"/>
</g>
<!-- cdmOrg__Organization&#45;&gt;cdmPerson__Person -->
<!-- city__JurisdictionalArea -->
<g id="node8" class="node">
<title>city__JurisdictionalArea</title>
<polygon fill="lightgray" stroke="none" points="22,-317.88 22,-334.12 144,-334.12 144,-317.88 22,-317.88"/>
<text xml:space="preserve" text-anchor="start" x="23" y="-321.73" font-family="Arial" font-size="12.00">city::JurisdictionalArea</text>
<polygon fill="none" stroke="black" points="21,-316.88 21,-335.12 145,-335.12 145,-316.88 21,-316.88"/>
</g>
<!-- cdmPerson__Person&#45;&gt;city__JurisdictionalArea -->
<!-- city__JurisdictionalArea&#45;&gt;i72__City -->
<!-- landUse__LandArea -->
<g id="node10" class="node">
<title>landUse__LandArea</title>
<polygon fill="lightgray" stroke="none" points="38.25,-171.88 38.25,-188.12 143.75,-188.12 143.75,-171.88 38.25,-171.88"/>
<text xml:space="preserve" text-anchor="start" x="39.25" y="-175.72" font-family="Arial" font-size="12.00">landUse::LandArea</text>
<polygon fill="none" stroke="black" points="37.25,-170.88 37.25,-189.12 144.75,-189.12 144.75,-170.88 37.25,-170.88"/>
</g>
<!-- i72__City&#45;&gt;landUse__LandArea -->
<!-- mainBylaw -->
<g id="node11" class="node">
<title>mainBylaw</title>
<polygon fill="lightgray" stroke="none" points="60.38,-98.88 60.38,-115.12 121.62,-115.12 121.62,-98.88 60.38,-98.88"/>
<text xml:space="preserve" text-anchor="start" x="61.38" y="-102.72" font-family="Arial" font-size="12.00">mainBylaw</text>
<polygon fill="none" stroke="black" points="59.38,-97.88 59.38,-116.12 122.62,-116.12 122.62,-97.88 59.38,-97.88"/>
</g>
<!-- landUse__LandArea&#45;&gt;mainBylaw -->
<!-- revisionBylaw -->
<g id="node12" class="node">
<title>revisionBylaw</title>
<polygon fill="lightgray" stroke="none" points="52.5,-25.88 52.5,-42.12 129.5,-42.12 129.5,-25.88 52.5,-25.88"/>
<text xml:space="preserve" text-anchor="start" x="53.5" y="-29.73" font-family="Arial" font-size="12.00">revisionBylaw</text>
<polygon fill="none" stroke="black" points="51.5,-24.88 51.5,-43.12 130.5,-43.12 130.5,-24.88 51.5,-24.88"/>
</g>
<!-- mainBylaw&#45;&gt;revisionBylaw -->
<!-- Ne525fe5cc55c4c2380092b88ecde3696&#45;&gt;activity__Activity -->
<g id="edge12" class="edge">
<title>Ne525fe5cc55c4c2380092b88ecde3696&#45;&gt;activity__Activity</title>
<path fill="none" stroke="black" stroke-dasharray="1,5" d="M188.8,-805.31C172.56,-787.67 147.8,-758.52 132.25,-729.5 120.23,-707.06 111.62,-679.34 106.33,-659.11"/>
<polygon fill="black" stroke="black" points="109.78,-658.49 103.97,-649.63 102.99,-660.18 109.78,-658.49"/>
<text xml:space="preserve" text-anchor="middle" x="152.12" y="-699.8" font-family="Arial" font-size="11.00">member</text>
</g>
<!-- Ne525fe5cc55c4c2380092b88ecde3696&#45;&gt;cdmOrg__Organization -->
<g id="edge15" class="edge">
<title>Ne525fe5cc55c4c2380092b88ecde3696&#45;&gt;cdmOrg__Organization</title>
<path fill="none" stroke="black" stroke-dasharray="1,5" d="M175.63,-818.9C118.94,-810.88 0,-784.51 0,-704.5 0,-704.5 0,-704.5 0,-544 0,-523.33 15.1,-507.27 32.26,-495.7"/>
<polygon fill="black" stroke="black" points="33.97,-498.76 40.64,-490.53 30.29,-492.8 33.97,-498.76"/>
<text xml:space="preserve" text-anchor="middle" x="19.88" y="-626.8" font-family="Arial" font-size="11.00">member</text>
</g>
<!-- Ne525fe5cc55c4c2380092b88ecde3696&#45;&gt;cdmPerson__Person -->
<g id="edge16" class="edge">
<title>Ne525fe5cc55c4c2380092b88ecde3696&#45;&gt;cdmPerson__Person</title>
<path fill="none" stroke="black" stroke-dasharray="1,5" d="M202.38,-805.28C196.52,-767.56 181.96,-673.39 170.25,-594.5 160.99,-532.09 181.23,-508.82 150,-454 143.18,-442.03 132.59,-431.68 121.82,-423.34"/>
<polygon fill="black" stroke="black" points="124.19,-420.73 114.04,-417.69 120.08,-426.4 124.19,-420.73"/>
<text xml:space="preserve" text-anchor="middle" x="190.12" y="-584.05" font-family="Arial" font-size="11.00">member</text>
</g>
<!-- Ne525fe5cc55c4c2380092b88ecde3696&#45;&gt;city__JurisdictionalArea -->
<g id="edge13" class="edge">
<title>Ne525fe5cc55c4c2380092b88ecde3696&#45;&gt;city__JurisdictionalArea</title>
<path fill="none" stroke="black" stroke-dasharray="1,5" d="M206.01,-805.58C206.65,-794.52 207.47,-779.64 208,-766.5 212.64,-652.11 215,-623.49 215,-509 215,-509 215,-509 215,-398 215,-366.93 186.28,-349.39 155.63,-339.53"/>
<polygon fill="black" stroke="black" points="156.78,-336.22 146.2,-336.77 154.82,-342.94 156.78,-336.22"/>
<text xml:space="preserve" text-anchor="middle" x="234.85" y="-541.3" font-family="Arial" font-size="11.00">member</text>
</g>
<!-- Ne525fe5cc55c4c2380092b88ecde3696&#45;&gt;landUse__LandArea -->
<g id="edge14" class="edge">
<title>Ne525fe5cc55c4c2380092b88ecde3696&#45;&gt;landUse__LandArea</title>
<path fill="none" stroke="black" stroke-dasharray="1,5" d="M225.49,-805.32C248.6,-784.36 283,-746.16 283,-704.5 283,-704.5 283,-704.5 283,-252 283,-224.28 211.7,-203.98 156,-192.35"/>
<polygon fill="black" stroke="black" points="156.72,-188.92 146.22,-190.37 155.33,-195.78 156.72,-188.92"/>
<text xml:space="preserve" text-anchor="middle" x="302.88" y="-468.3" font-family="Arial" font-size="11.00">member</text>
</g>
</g>
</svg>
