<?xml version="1.0" encoding="UTF-8" standalone="no"?>
<!DOCTYPE svg PUBLIC "-//W3C//DTD SVG 1.1//EN"
 "http://www.w3.org/Graphics/SVG/1.1/DTD/svg11.dtd">
<!-- Generated by graphviz version 14.0.2 (20251019.1705)
 -->
<!-- Pages: 1 -->
<svg width="962pt" height="902pt"
 viewBox="0.00 0.00 962.00 902.00" xmlns="http://www.w3.org/2000/svg" xmlns:xlink="http://www.w3.org/1999/xlink">
<g id="graph0" class="graph" transform="scale(1 1) rotate(0) translate(4 897.5)">
<polygon fill="white" stroke="none" points="-4,4 -4,-897.5 958.25,-897.5 958.25,4 -4,4"/>
<g id="clust2" class="cluster">
<title>cluster_associated</title>
</g>
<!-- Law -->
<g id="node1" class="node">
<title>Law</title>
<g id="a_node1"><a xlink:href="../classes/Bylaw__Law.md" xlink:title="&lt;TABLE&gt;">
<polygon fill="lightgray" stroke="none" points="292.38,-736 292.38,-752.25 503.62,-752.25 503.62,-736 292.38,-736"/>
<text xml:space="preserve" text-anchor="start" x="386.75" y="-739.85" font-family="Arial" font-size="12.00">Law</text>
<text xml:space="preserve" text-anchor="start" x="293.38" y="-723.6" font-family="Arial" font-size="12.00">abstract: xsd::string «max 1»</text>
<text xml:space="preserve" text-anchor="start" x="293.38" y="-707.35" font-family="Arial" font-size="12.00">dateInEffect: xsd::dateTime «max 1»</text>
<text xml:space="preserve" text-anchor="start" x="293.38" y="-691.1" font-family="Arial" font-size="12.00">datePublished: xsd::dateTime «max 1»</text>
<text xml:space="preserve" text-anchor="start" x="293.38" y="-674.85" font-family="Arial" font-size="12.00">expires: xsd::dateTime «max 1»</text>
<text xml:space="preserve" text-anchor="start" x="293.38" y="-658.6" font-family="Arial" font-size="12.00">genProp::hasName: xsd::string «only»</text>
<text xml:space="preserve" text-anchor="start" x="293.38" y="-642.35" font-family="Arial" font-size="12.00">keywords: xsd::string «only»</text>
<text xml:space="preserve" text-anchor="start" x="293.38" y="-626.1" font-family="Arial" font-size="12.00">legislationDate: xsd::dateTime «max 1»</text>
<text xml:space="preserve" text-anchor="start" x="293.38" y="-609.85" font-family="Arial" font-size="12.00">legislationIdentifier: xsd::string «max 1»</text>
<polygon fill="none" stroke="black" points="291.38,-605 291.38,-753.25 504.62,-753.25 504.62,-605 291.38,-605"/>
</a>
</g>
</g>
<!-- BylawOntologyThing -->
<g id="node2" class="node">
<title>BylawOntologyThing</title>
<g id="a_node2"><a xlink:href="../_counters/Bylaw__BylawOntologyThing.md" xlink:title="&lt;TABLE&gt;">
<polygon fill="lightgray" stroke="none" points="243.12,-846.75 243.12,-863 356.88,-863 356.88,-846.75 243.12,-846.75"/>
<text xml:space="preserve" text-anchor="start" x="244.12" y="-850.6" font-family="Arial" font-size="12.00">BylawOntologyThing</text>
<polygon fill="none" stroke="black" points="242.12,-845.75 242.12,-864 357.88,-864 357.88,-845.75 242.12,-845.75"/>
</a>
</g>
</g>
<!-- Law&#45;&gt;BylawOntologyThing -->
<g id="edge1" class="edge">
<title>Law&#45;&gt;BylawOntologyThing</title>
<path fill="none" stroke="black" d="M356.93,-752.94C342.12,-779.2 326.32,-807.22 315.13,-827.05"/>
<polygon fill="none" stroke="black" points="312.18,-825.15 310.32,-835.58 318.28,-828.59 312.18,-825.15"/>
</g>
<!-- Invis -->
<!-- Law&#45;&gt;Invis -->
<!-- city__JurisdictionalArea -->
<g id="node4" class="node">
<title>city__JurisdictionalArea</title>
<polygon fill="lightgray" stroke="none" points="17,-515.88 17,-532.12 139,-532.12 139,-515.88 17,-515.88"/>
<text xml:space="preserve" text-anchor="start" x="18" y="-519.73" font-family="Arial" font-size="12.00">city::JurisdictionalArea</text>
<polygon fill="none" stroke="black" points="16,-514.88 16,-533.12 140,-533.12 140,-514.88 16,-514.88"/>
</g>
<!-- Law&#45;&gt;city__JurisdictionalArea -->
<g id="edge18" class="edge">
<title>Law&#45;&gt;city__JurisdictionalArea</title>
<path fill="none" stroke="black" d="M291.44,-645.3C248.28,-632.3 197.89,-617.51 152,-605 119.97,-596.27 100.27,-612.9 79.5,-587 71.97,-577.61 70.73,-564.61 71.72,-552.93"/>
<polygon fill="black" stroke="black" points="75.14,-553.77 73.09,-543.38 68.21,-552.78 75.14,-553.77"/>
<text xml:space="preserve" text-anchor="middle" x="132.75" y="-576.55" font-family="Arial" font-size="11.00"> legislationJurisdiction </text>
<text xml:space="preserve" text-anchor="middle" x="132.75" y="-563.05" font-family="Arial" font-size="11.00"> «max 1» &#160;</text>
</g>
<!-- Clause -->
<g id="node5" class="node">
<title>Clause</title>
<g id="a_node5"><a xlink:href="../_counters/Bylaw__Clause.md" xlink:title="&lt;TABLE&gt;">
<polygon fill="lightgray" stroke="none" points="92.88,-416.88 92.88,-433.12 133.12,-433.12 133.12,-416.88 92.88,-416.88"/>
<text xml:space="preserve" text-anchor="start" x="93.88" y="-420.73" font-family="Arial" font-size="12.00">Clause</text>
<polygon fill="none" stroke="black" points="91.88,-415.88 91.88,-434.12 134.12,-434.12 134.12,-415.88 91.88,-415.88"/>
</a>
</g>
</g>
<!-- Law&#45;&gt;Clause -->
<g id="edge10" class="edge">
<title>Law&#45;&gt;Clause</title>
<path fill="none" stroke="black" d="M291.41,-620.75C256.65,-598.95 219.46,-572.04 190,-542 163.49,-514.97 140.6,-477.59 126.82,-452.65"/>
<polygon fill="black" stroke="black" points="130.04,-451.25 122.21,-444.12 123.88,-454.58 130.04,-451.25"/>
<text xml:space="preserve" text-anchor="middle" x="218.5" y="-527.05" font-family="Arial" font-size="11.00"> hasClause </text>
<text xml:space="preserve" text-anchor="middle" x="218.5" y="-513.55" font-family="Arial" font-size="11.00"> «only» &#160;</text>
</g>
<!-- Law&#45;&gt;Clause -->
<g id="edge12" class="edge">
<title>Law&#45;&gt;Clause</title>
<path fill="none" stroke="black" d="M337.93,-605.19C304.89,-565.99 266.7,-522.41 247,-506 216.91,-480.94 178.08,-458.67 149.98,-444.04"/>
<polygon fill="black" stroke="black" points="151.61,-440.94 141.12,-439.5 148.42,-447.18 151.61,-440.94"/>
<text xml:space="preserve" text-anchor="middle" x="328.32" y="-527.05" font-family="Arial" font-size="11.00"> hasPenaltyClause </text>
<text xml:space="preserve" text-anchor="middle" x="328.32" y="-513.55" font-family="Arial" font-size="11.00"> «only» &#160;</text>
</g>
<!-- Law&#45;&gt;Clause -->
<g id="edge13" class="edge">
<title>Law&#45;&gt;Clause</title>
<path fill="none" stroke="black" d="M405.7,-605.24C405.35,-571.52 398.84,-533.04 376,-506 319.53,-439.14 209.03,-427.02 150.86,-425.52"/>
<polygon fill="black" stroke="black" points="151.19,-422.02 141.14,-425.37 151.08,-429.02 151.19,-422.02"/>
<text xml:space="preserve" text-anchor="middle" x="441.53" y="-527.05" font-family="Arial" font-size="11.00"> hasRepealClause </text>
<text xml:space="preserve" text-anchor="middle" x="441.53" y="-513.55" font-family="Arial" font-size="11.00"> «only» &#160;</text>
</g>
<!-- Law&#45;&gt;Clause -->
<g id="edge15" class="edge">
<title>Law&#45;&gt;Clause</title>
<path fill="none" stroke="black" d="M474.44,-605.19C498.41,-573.53 513.41,-536.74 491,-506 451.1,-451.26 238.88,-433.1 151.08,-427.87"/>
<polygon fill="black" stroke="black" points="151.48,-424.39 141.3,-427.32 151.08,-431.38 151.48,-424.39"/>
<text xml:space="preserve" text-anchor="middle" x="556.37" y="-527.05" font-family="Arial" font-size="11.00"> hasSeveranceClause </text>
<text xml:space="preserve" text-anchor="middle" x="556.37" y="-513.55" font-family="Arial" font-size="11.00"> «only» &#160;</text>
</g>
<!-- Law&#45;&gt;Clause -->
<g id="edge16" class="edge">
<title>Law&#45;&gt;Clause</title>
<path fill="none" stroke="black" d="M504.34,-642.27C578.92,-611.25 658.2,-562.56 615,-506 558.85,-432.48 258.01,-425.72 150.9,-425.69"/>
<polygon fill="black" stroke="black" points="151.2,-422.19 141.21,-425.71 151.21,-429.19 151.2,-422.19"/>
<text xml:space="preserve" text-anchor="middle" x="678.99" y="-527.05" font-family="Arial" font-size="11.00"> hasTransitionClause </text>
<text xml:space="preserve" text-anchor="middle" x="678.99" y="-513.55" font-family="Arial" font-size="11.00"> «only» &#160;</text>
</g>
<!-- Definition -->
<g id="node6" class="node">
<title>Definition</title>
<g id="a_node6"><a xlink:href="../_counters/Bylaw__Definition.md" xlink:title="&lt;TABLE&gt;">
<polygon fill="lightgray" stroke="none" points="85.5,-343.88 85.5,-360.12 138.5,-360.12 138.5,-343.88 85.5,-343.88"/>
<text xml:space="preserve" text-anchor="start" x="86.5" y="-347.73" font-family="Arial" font-size="12.00">Definition</text>
<polygon fill="none" stroke="black" points="84.5,-342.88 84.5,-361.12 139.5,-361.12 139.5,-342.88 84.5,-342.88"/>
</a>
</g>
</g>
<!-- Law&#45;&gt;Definition -->
<g id="edge11" class="edge">
<title>Law&#45;&gt;Definition</title>
<path fill="none" stroke="black" d="M504.52,-663.89C627.09,-642.98 803.26,-596.26 735,-506 663.01,-410.8 274.85,-367.76 150.41,-356.27"/>
<polygon fill="black" stroke="black" points="151,-352.81 140.72,-355.4 150.36,-359.78 151,-352.81"/>
<text xml:space="preserve" text-anchor="middle" x="749.93" y="-477.55" font-family="Arial" font-size="11.00"> hasDefinition </text>
<text xml:space="preserve" text-anchor="middle" x="749.93" y="-464.05" font-family="Arial" font-size="11.00"> «only» &#160;</text>
</g>
<!-- Schedule -->
<g id="node10" class="node">
<title>Schedule</title>
<g id="a_node10"><a xlink:href="../_counters/Bylaw__Schedule.md" xlink:title="&lt;TABLE&gt;">
<polygon fill="lightgray" stroke="none" points="77.5,-25.88 77.5,-42.12 130.5,-42.12 130.5,-25.88 77.5,-25.88"/>
<text xml:space="preserve" text-anchor="start" x="78.5" y="-29.73" font-family="Arial" font-size="12.00">Schedule</text>
<polygon fill="none" stroke="black" points="76.5,-24.88 76.5,-43.12 131.5,-43.12 131.5,-24.88 76.5,-24.88"/>
</a>
</g>
</g>
<!-- Law&#45;&gt;Schedule -->
<g id="edge14" class="edge">
<title>Law&#45;&gt;Schedule</title>
<path fill="none" stroke="black" d="M504.49,-666.39C648.08,-647.55 886,-604.36 886,-525 886,-525 886,-525 886,-106 886,-68.26 300.68,-42.68 142.82,-36.47"/>
<polygon fill="black" stroke="black" points="143.01,-32.97 132.89,-36.08 142.74,-39.97 143.01,-32.97"/>
<text xml:space="preserve" text-anchor="middle" x="920.12" y="-305.55" font-family="Arial" font-size="11.00"> hasSchedule </text>
<text xml:space="preserve" text-anchor="middle" x="920.12" y="-292.05" font-family="Arial" font-size="11.00"> «only» &#160;</text>
</g>
<!-- N2f6fcac160504d54b07b4ed85f3cae46 -->
<g id="node11" class="node">
<title>N2f6fcac160504d54b07b4ed85f3cae46</title>
<polygon fill="lightgray" stroke="none" points="377.38,-862 377.38,-892.5 612.62,-892.5 612.62,-862 377.38,-862"/>
<text xml:space="preserve" text-anchor="start" x="472.5" y="-880.1" font-family="Arial" font-size="12.00">«Enum»</text>
<text xml:space="preserve" text-anchor="start" x="378.38" y="-865.85" font-family="Arial" font-size="12.00">Enum: InForce, NotInForce, PartiallyInForce</text>
<text xml:space="preserve" text-anchor="start" x="400.12" y="-849.6" font-family="Arial" font-size="12.00">+ InForce</text>
<text xml:space="preserve" text-anchor="start" x="390.75" y="-835.35" font-family="Arial" font-size="12.00">+ NotInForce</text>
<text xml:space="preserve" text-anchor="start" x="378.38" y="-821.1" font-family="Arial" font-size="12.00">+ PartiallyInForce</text>
<polygon fill="none" stroke="black" points="376.38,-816.25 376.38,-893.5 613.62,-893.5 613.62,-816.25 376.38,-816.25"/>
</g>
<!-- Law&#45;&gt;N2f6fcac160504d54b07b4ed85f3cae46 -->
<g id="edge17" class="edge">
<title>Law&#45;&gt;N2f6fcac160504d54b07b4ed85f3cae46</title>
<path fill="none" stroke="black" d="M438.74,-753.1C448.85,-771.21 459.43,-790.16 468.64,-806.67"/>
<polygon fill="black" stroke="black" points="465.52,-808.25 473.45,-815.28 471.63,-804.84 465.52,-808.25"/>
<text xml:space="preserve" text-anchor="middle" x="517.25" y="-787.8" font-family="Arial" font-size="11.00"> legislationLegalForce </text>
<text xml:space="preserve" text-anchor="middle" x="517.25" y="-774.3" font-family="Arial" font-size="11.00"> «only» &#160;</text>
</g>
<!-- Invis&#45;&gt;city__JurisdictionalArea -->
<!-- city__JurisdictionalArea&#45;&gt;Clause -->
<!-- Clause&#45;&gt;Definition -->
<!-- InForce -->
<g id="node7" class="node">
<title>InForce</title>
<polygon fill="lightgray" stroke="none" points="80.75,-244.88 80.75,-261.12 123.25,-261.12 123.25,-244.88 80.75,-244.88"/>
<text xml:space="preserve" text-anchor="start" x="81.75" y="-248.72" font-family="Arial" font-size="12.00">InForce</text>
<polygon fill="none" stroke="black" points="79.75,-243.88 79.75,-262.12 124.25,-262.12 124.25,-243.88 79.75,-243.88"/>
</g>
<!-- Definition&#45;&gt;InForce -->
<!-- NotInForce -->
<g id="node8" class="node">
<title>NotInForce</title>
<polygon fill="lightgray" stroke="none" points="66.38,-171.88 66.38,-188.12 127.62,-188.12 127.62,-171.88 66.38,-171.88"/>
<text xml:space="preserve" text-anchor="start" x="67.38" y="-175.72" font-family="Arial" font-size="12.00">NotInForce</text>
<polygon fill="none" stroke="black" points="65.38,-170.88 65.38,-189.12 128.62,-189.12 128.62,-170.88 65.38,-170.88"/>
</g>
<!-- InForce&#45;&gt;NotInForce -->
<!-- PartiallyInForce -->
<g id="node9" class="node">
<title>PartiallyInForce</title>
<polygon fill="lightgray" stroke="none" points="53,-98.88 53,-115.12 139,-115.12 139,-98.88 53,-98.88"/>
<text xml:space="preserve" text-anchor="start" x="54" y="-102.72" font-family="Arial" font-size="12.00">PartiallyInForce</text>
<polygon fill="none" stroke="black" points="52,-97.88 52,-116.12 140,-116.12 140,-97.88 52,-97.88"/>
</g>
<!-- NotInForce&#45;&gt;PartiallyInForce -->
<!-- PartiallyInForce&#45;&gt;Schedule -->
</g>
</svg>
