<?xml version="1.0" encoding="UTF-8" standalone="no"?>
<!DOCTYPE svg PUBLIC "-//W3C//DTD SVG 1.1//EN"
 "http://www.w3.org/Graphics/SVG/1.1/DTD/svg11.dtd">
<!-- Generated by graphviz version 14.0.2 (20251019.1705)
 -->
<!-- Pages: 1 -->
<svg width="519pt" height="391pt"
 viewBox="0.00 0.00 519.00 391.00" xmlns="http://www.w3.org/2000/svg" xmlns:xlink="http://www.w3.org/1999/xlink">
<g id="graph0" class="graph" transform="scale(1 1) rotate(0) translate(4 386.5)">
<polygon fill="white" stroke="none" points="-4,4 -4,-386.5 515.25,-386.5 515.25,4 -4,4"/>
<g id="clust2" class="cluster">
<title>cluster_associated</title>
</g>
<!-- EntityOwnership -->
<g id="node1" class="node">
<title>EntityOwnership</title>
<g id="a_node1"><a xlink:href="../classes/CityResident__EntityOwnership.md" xlink:title="&lt;TABLE&gt;">
<polygon fill="lightgray" stroke="none" points="1,-265.5 1,-281.75 222,-281.75 222,-265.5 1,-265.5"/>
<text xml:space="preserve" text-anchor="start" x="67.62" y="-269.35" font-family="Arial" font-size="12.00">EntityOwnership</text>
<text xml:space="preserve" text-anchor="start" x="2" y="-253.1" font-family="Arial" font-size="12.00">percentOwnership: xsd::decimal «max 1»</text>
<polygon fill="none" stroke="black" points="0,-248.25 0,-282.75 223,-282.75 223,-248.25 0,-248.25"/>
</a>
</g>
</g>
<!-- ControlledEntity -->
<g id="node2" class="node">
<title>ControlledEntity</title>
<g id="a_node2"><a xlink:href="../_counters/CityResident__ControlledEntity.md" xlink:title="&lt;TABLE&gt;">
<polygon fill="lightgray" stroke="none" points="67.75,-356.38 67.75,-372.62 155.25,-372.62 155.25,-356.38 67.75,-356.38"/>
<text xml:space="preserve" text-anchor="start" x="68.75" y="-360.23" font-family="Arial" font-size="12.00">ControlledEntity</text>
<polygon fill="none" stroke="black" points="66.75,-355.38 66.75,-373.62 156.25,-373.62 156.25,-355.38 66.75,-355.38"/>
</a>
</g>
</g>
<!-- EntityOwnership&#45;&gt;ControlledEntity -->
<g id="edge1" class="edge">
<title>EntityOwnership&#45;&gt;ControlledEntity</title>
<path fill="none" stroke="black" d="M111.5,-283.2C111.5,-297.47 111.5,-318.3 111.5,-335.17"/>
<polygon fill="none" stroke="black" points="108,-335.09 111.5,-345.09 115,-335.09 108,-335.09"/>
</g>
<!-- Invis -->
<!-- EntityOwnership&#45;&gt;Invis -->
<!-- N1618980622d2405ea4e1dadb0aa0267c -->
<g id="node7" class="node">
<title>N1618980622d2405ea4e1dadb0aa0267c</title>
<polygon fill="lightyellow" stroke="none" points="352.75,-355.38 352.75,-373.62 412.25,-373.62 412.25,-355.38 352.75,-355.38"/>
<text xml:space="preserve" text-anchor="start" x="354.75" y="-360.23" font-family="Arial" font-size="12.00">«unionOf»</text>
<polygon fill="none" stroke="black" points="352.75,-355.38 352.75,-373.62 412.25,-373.62 412.25,-355.38 352.75,-355.38"/>
</g>
<!-- EntityOwnership&#45;&gt;N1618980622d2405ea4e1dadb0aa0267c -->
<g id="edge9" class="edge">
<title>EntityOwnership&#45;&gt;N1618980622d2405ea4e1dadb0aa0267c</title>
<path fill="none" stroke="black" stroke-dasharray="5,2" d="M143.11,-283.42C169.46,-297.01 208.28,-315.84 243.75,-328.5 276.04,-340.02 313.83,-349.29 341.81,-355.39"/>
<polygon fill="black" stroke="black" points="340.79,-358.75 351.3,-357.41 342.25,-351.9 340.79,-358.75"/>
<text xml:space="preserve" text-anchor="middle" x="289.12" y="-318.05" font-family="Arial" font-size="11.00"> onProperty: entity </text>
<text xml:space="preserve" text-anchor="middle" x="289.12" y="-304.55" font-family="Arial" font-size="11.00"> «max 1» &#160;</text>
</g>
<!-- building__Building -->
<g id="node4" class="node">
<title>building__Building</title>
<polygon fill="lightgray" stroke="none" points="271,-171.88 271,-188.12 366,-188.12 366,-171.88 271,-171.88"/>
<text xml:space="preserve" text-anchor="start" x="272" y="-175.72" font-family="Arial" font-size="12.00">building::Building</text>
<polygon fill="none" stroke="black" points="270,-170.88 270,-189.12 367,-189.12 367,-170.88 270,-170.88"/>
</g>
<!-- Invis&#45;&gt;building__Building -->
<!-- cdmOrg__Organization -->
<g id="node5" class="node">
<title>cdmOrg__Organization</title>
<polygon fill="lightgray" stroke="none" points="259.38,-98.88 259.38,-115.12 377.62,-115.12 377.62,-98.88 259.38,-98.88"/>
<text xml:space="preserve" text-anchor="start" x="260.38" y="-102.72" font-family="Arial" font-size="12.00">cdmOrg::Organization</text>
<polygon fill="none" stroke="black" points="258.38,-97.88 258.38,-116.12 378.62,-116.12 378.62,-97.88 258.38,-97.88"/>
</g>
<!-- building__Building&#45;&gt;cdmOrg__Organization -->
<!-- landUse__LandArea -->
<g id="node6" class="node">
<title>landUse__LandArea</title>
<polygon fill="lightgray" stroke="none" points="268.75,-25.88 268.75,-42.12 374.25,-42.12 374.25,-25.88 268.75,-25.88"/>
<text xml:space="preserve" text-anchor="start" x="269.75" y="-29.73" font-family="Arial" font-size="12.00">landUse::LandArea</text>
<polygon fill="none" stroke="black" points="267.75,-24.88 267.75,-43.12 375.25,-43.12 375.25,-24.88 267.75,-24.88"/>
</g>
<!-- cdmOrg__Organization&#45;&gt;landUse__LandArea -->
<!-- N1618980622d2405ea4e1dadb0aa0267c&#45;&gt;building__Building -->
<g id="edge6" class="edge">
<title>N1618980622d2405ea4e1dadb0aa0267c&#45;&gt;building__Building</title>
<path fill="none" stroke="black" stroke-dasharray="1,5" d="M376.59,-346.66C365.5,-315.01 341.45,-246.43 328.03,-208.18"/>
<polygon fill="black" stroke="black" points="331.5,-207.51 324.89,-199.23 324.9,-209.82 331.5,-207.51"/>
<text xml:space="preserve" text-anchor="middle" x="376.74" y="-261.8" font-family="Arial" font-size="11.00">member</text>
</g>
<!-- N1618980622d2405ea4e1dadb0aa0267c&#45;&gt;cdmOrg__Organization -->
<g id="edge8" class="edge">
<title>N1618980622d2405ea4e1dadb0aa0267c&#45;&gt;cdmOrg__Organization</title>
<path fill="none" stroke="black" stroke-dasharray="1,5" d="M387.99,-346.56C392.36,-332.1 398.14,-310.68 400.5,-291.5 402.89,-272.09 403.17,-266.87 400.5,-247.5 395.12,-208.4 397.04,-195.7 376.5,-162 369.76,-150.94 360.13,-140.71 350.64,-132.19"/>
<polygon fill="black" stroke="black" points="353.1,-129.69 343.22,-125.86 348.56,-135.01 353.1,-129.69"/>
<text xml:space="preserve" text-anchor="middle" x="418.04" y="-219.05" font-family="Arial" font-size="11.00">member</text>
</g>
<!-- N1618980622d2405ea4e1dadb0aa0267c&#45;&gt;landUse__LandArea -->
<g id="edge7" class="edge">
<title>N1618980622d2405ea4e1dadb0aa0267c&#45;&gt;landUse__LandArea</title>
<path fill="none" stroke="black" stroke-dasharray="1,5" d="M412.14,-347.3C438.03,-330.74 471.5,-302.38 471.5,-266.5 471.5,-266.5 471.5,-266.5 471.5,-106 471.5,-65.84 427.03,-48.36 386.51,-40.77"/>
<polygon fill="black" stroke="black" points="387.16,-37.34 376.72,-39.14 386.01,-44.24 387.16,-37.34"/>
<text xml:space="preserve" text-anchor="middle" x="491.38" y="-176.3" font-family="Arial" font-size="11.00">member</text>
</g>
</g>
</svg>
