<?xml version="1.0" encoding="UTF-8" standalone="no"?>
<!DOCTYPE svg PUBLIC "-//W3C//DTD SVG 1.1//EN"
 "http://www.w3.org/Graphics/SVG/1.1/DTD/svg11.dtd">
<!-- Generated by graphviz version 14.0.2 (20251019.1705)
 -->
<!-- Pages: 1 -->
<svg width="190pt" height="132pt"
 viewBox="0.00 0.00 190.00 132.00" xmlns="http://www.w3.org/2000/svg" xmlns:xlink="http://www.w3.org/1999/xlink">
<g id="graph0" class="graph" transform="scale(1 1) rotate(0) translate(4 128)">
<polygon fill="white" stroke="none" points="-4,4 -4,-128 186,-128 186,4 -4,4"/>
<g id="clust2" class="cluster">
<title>cluster_associated</title>
</g>
<!-- CityPatternThing -->
<g id="node1" class="node">
<title>CityPatternThing</title>
<g id="a_node1"><a xlink:href="../classes/CityPattern__CityPatternThing.md" xlink:title="&lt;TABLE&gt;">
<polygon fill="lightgray" stroke="none" points="1,-25.88 1,-42.12 93,-42.12 93,-25.88 1,-25.88"/>
<text xml:space="preserve" text-anchor="start" x="2" y="-29.73" font-family="Arial" font-size="12.00">CityPatternThing</text>
<polygon fill="none" stroke="black" points="0,-24.88 0,-43.12 94,-43.12 94,-24.88 0,-24.88"/>
</a>
</g>
</g>
<!-- base__CityThing -->
<g id="node2" class="node">
<title>base__CityThing</title>
<polygon fill="lightgray" stroke="none" points="4,-97.88 4,-114.12 90,-114.12 90,-97.88 4,-97.88"/>
<text xml:space="preserve" text-anchor="start" x="5" y="-101.72" font-family="Arial" font-size="12.00">base::CityThing</text>
<polygon fill="none" stroke="black" points="3,-96.88 3,-115.12 91,-115.12 91,-96.88 3,-96.88"/>
</g>
<!-- CityPatternThing&#45;&gt;base__CityThing -->
<g id="edge1" class="edge">
<title>CityPatternThing&#45;&gt;base__CityThing</title>
<path fill="none" stroke="black" d="M47,-51.79C47,-59.25 47,-68.24 47,-76.69"/>
<polygon fill="none" stroke="black" points="43.5,-76.54 47,-86.54 50.5,-76.54 43.5,-76.54"/>
</g>
<!-- Invis -->
</g>
</svg>
