<?xml version="1.0" encoding="UTF-8" standalone="no"?>
<!DOCTYPE svg PUBLIC "-//W3C//DTD SVG 1.1//EN"
 "http://www.w3.org/Graphics/SVG/1.1/DTD/svg11.dtd">
<!-- Generated by graphviz version 14.0.2 (20251019.1705)
 -->
<!-- Pages: 1 -->
<svg width="552pt" height="675pt"
 viewBox="0.00 0.00 552.00 675.00" xmlns="http://www.w3.org/2000/svg" xmlns:xlink="http://www.w3.org/1999/xlink">
<g id="graph0" class="graph" transform="scale(1 1) rotate(0) translate(4 671)">
<polygon fill="white" stroke="none" points="-4,4 -4,-671 548.12,-671 548.12,4 -4,4"/>
<g id="clust2" class="cluster">
<title>cluster_associated</title>
</g>
<!-- Contract -->
<g id="node1" class="node">
<title>Contract</title>
<g id="a_node1"><a xlink:href="../classes/Contract__Contract.md" xlink:title="&lt;TABLE&gt;">
<polygon fill="lightgray" stroke="none" points="245.87,-541.88 245.87,-558.12 292.87,-558.12 292.87,-541.88 245.87,-541.88"/>
<text xml:space="preserve" text-anchor="start" x="246.87" y="-545.73" font-family="Arial" font-size="12.00">Contract</text>
<polygon fill="none" stroke="black" points="244.87,-540.88 244.87,-559.12 293.87,-559.12 293.87,-540.88 244.87,-540.88"/>
</a>
</g>
</g>
<!-- ContractOntologyThing -->
<g id="node2" class="node">
<title>ContractOntologyThing</title>
<g id="a_node2"><a xlink:href="../_counters/Contract__ContractOntologyThing.md" xlink:title="&lt;TABLE&gt;">
<polygon fill="lightgray" stroke="none" points="232.5,-640.88 232.5,-657.12 358.25,-657.12 358.25,-640.88 232.5,-640.88"/>
<text xml:space="preserve" text-anchor="start" x="233.5" y="-644.73" font-family="Arial" font-size="12.00">ContractOntologyThing</text>
<polygon fill="none" stroke="black" points="231.5,-639.88 231.5,-658.12 359.25,-658.12 359.25,-639.88 231.5,-639.88"/>
</a>
</g>
</g>
<!-- Contract&#45;&gt;ContractOntologyThing -->
<g id="edge1" class="edge">
<title>Contract&#45;&gt;ContractOntologyThing</title>
<path fill="none" stroke="black" d="M274.86,-567.67C276.7,-573.45 278.7,-579.99 280.37,-586 283.46,-597.13 286.53,-609.48 289.07,-620.21"/>
<polygon fill="none" stroke="black" points="285.58,-620.66 291.26,-629.61 292.4,-619.07 285.58,-620.66"/>
</g>
<!-- Invis -->
<!-- Contract&#45;&gt;Invis -->
<!-- agreement__Agreement -->
<g id="node4" class="node">
<title>agreement__Agreement</title>
<polygon fill="lightgray" stroke="none" points="30.62,-442.88 30.62,-459.12 154.12,-459.12 154.12,-442.88 30.62,-442.88"/>
<text xml:space="preserve" text-anchor="start" x="31.62" y="-446.73" font-family="Arial" font-size="12.00">agreement::Agreement</text>
<polygon fill="none" stroke="black" points="29.62,-441.88 29.62,-460.12 155.12,-460.12 155.12,-441.88 29.62,-441.88"/>
</g>
<!-- Contract&#45;&gt;agreement__Agreement -->
<g id="edge10" class="edge">
<title>Contract&#45;&gt;agreement__Agreement</title>
<path fill="none" stroke="black" d="M242.56,-545.12C206.26,-539.42 143.94,-527.94 125.87,-514 114.6,-505.3 106.66,-491.7 101.34,-479.45"/>
<polygon fill="black" stroke="black" points="104.62,-478.22 97.73,-470.17 98.09,-480.76 104.62,-478.22"/>
<text xml:space="preserve" text-anchor="middle" x="176.12" y="-503.55" font-family="Arial" font-size="11.00"> specifiesAgreement </text>
<text xml:space="preserve" text-anchor="middle" x="176.12" y="-490.05" font-family="Arial" font-size="11.00"> «some» &#160;</text>
</g>
<!-- ContractualElement -->
<g id="node6" class="node">
<title>ContractualElement</title>
<g id="a_node6"><a xlink:href="../_counters/Contract__ContractualElement.md" xlink:title="&lt;TABLE&gt;">
<polygon fill="lightgray" stroke="none" points="40.5,-244.88 40.5,-261.12 148.25,-261.12 148.25,-244.88 40.5,-244.88"/>
<text xml:space="preserve" text-anchor="start" x="41.5" y="-248.72" font-family="Arial" font-size="12.00">ContractualElement</text>
<polygon fill="none" stroke="black" points="39.5,-243.88 39.5,-262.12 149.25,-262.12 149.25,-243.88 39.5,-243.88"/>
</a>
</g>
</g>
<!-- Contract&#45;&gt;ContractualElement -->
<g id="edge9" class="edge">
<title>Contract&#45;&gt;ContractualElement</title>
<path fill="none" stroke="black" d="M266.54,-532.02C260.91,-501.52 246.38,-436.16 218.37,-388 193.07,-344.48 151.44,-303.39 123.48,-278.46"/>
<polygon fill="black" stroke="black" points="125.88,-275.91 116.06,-271.95 121.26,-281.17 125.88,-275.91"/>
<text xml:space="preserve" text-anchor="middle" x="291.2" y="-404.55" font-family="Arial" font-size="11.00"> hasContractualElement </text>
<text xml:space="preserve" text-anchor="middle" x="291.2" y="-391.05" font-family="Arial" font-size="11.00"> «some» &#160;</text>
</g>
<!-- person__Person -->
<g id="node7" class="node">
<title>person__Person</title>
<polygon fill="lightgray" stroke="none" points="70.87,-171.88 70.87,-188.12 153.87,-188.12 153.87,-171.88 70.87,-171.88"/>
<text xml:space="preserve" text-anchor="start" x="71.87" y="-175.72" font-family="Arial" font-size="12.00">person::Person</text>
<polygon fill="none" stroke="black" points="69.87,-170.88 69.87,-189.12 154.87,-189.12 154.87,-170.88 69.87,-170.88"/>
</g>
<!-- Contract&#45;&gt;person__Person -->
<g id="edge16" class="edge">
<title>Contract&#45;&gt;person__Person</title>
<path fill="none" stroke="black" d="M289.91,-532.15C322.92,-502.92 381.46,-440.89 354.37,-388 348.13,-375.81 339.56,-379.15 329.37,-370 261.02,-308.57 265.71,-270.04 191.37,-216 183.35,-210.17 174.2,-205.01 165.05,-200.58"/>
<polygon fill="black" stroke="black" points="166.69,-197.48 156.14,-196.5 163.78,-203.84 166.69,-197.48"/>
<text xml:space="preserve" text-anchor="middle" x="363.87" y="-355.05" font-family="Arial" font-size="11.00"> hasSignatory </text>
<text xml:space="preserve" text-anchor="middle" x="363.87" y="-341.55" font-family="Arial" font-size="11.00"> «min 2» &#160;</text>
</g>
<!-- time__Interval -->
<g id="node8" class="node">
<title>time__Interval</title>
<polygon fill="lightgray" stroke="none" points="77.62,-98.88 77.62,-115.12 147.12,-115.12 147.12,-98.88 77.62,-98.88"/>
<text xml:space="preserve" text-anchor="start" x="78.62" y="-102.72" font-family="Arial" font-size="12.00">time::Interval</text>
<polygon fill="none" stroke="black" points="76.62,-97.88 76.62,-116.12 148.12,-116.12 148.12,-97.88 76.62,-97.88"/>
</g>
<!-- Contract&#45;&gt;time__Interval -->
<g id="edge12" class="edge">
<title>Contract&#45;&gt;time__Interval</title>
<path fill="none" stroke="black" d="M296.27,-543.56C337.69,-533.44 412.37,-507.5 412.37,-452 412.37,-452 412.37,-452 412.37,-179 412.37,-127.63 243.67,-113.38 159.29,-109.46"/>
<polygon fill="black" stroke="black" points="159.62,-105.97 149.48,-109.04 159.32,-112.97 159.62,-105.97"/>
<text xml:space="preserve" text-anchor="middle" x="439" y="-305.55" font-family="Arial" font-size="11.00"> isValidFor </text>
<text xml:space="preserve" text-anchor="middle" x="439" y="-292.05" font-family="Arial" font-size="11.00"> «only» &#160;</text>
</g>
<!-- time__TemporalEntity -->
<g id="node9" class="node">
<title>time__TemporalEntity</title>
<polygon fill="lightgray" stroke="none" points="44.37,-25.88 44.37,-42.12 154.37,-42.12 154.37,-25.88 44.37,-25.88"/>
<text xml:space="preserve" text-anchor="start" x="45.37" y="-29.73" font-family="Arial" font-size="12.00">time::TemporalEntity</text>
<polygon fill="none" stroke="black" points="43.37,-24.88 43.37,-43.12 155.37,-43.12 155.37,-24.88 43.37,-24.88"/>
</g>
<!-- Contract&#45;&gt;time__TemporalEntity -->
<g id="edge11" class="edge">
<title>Contract&#45;&gt;time__TemporalEntity</title>
<path fill="none" stroke="black" d="M296.1,-548.65C352.87,-546.34 480.37,-532.23 480.37,-452 480.37,-452 480.37,-452 480.37,-106 480.37,-74.44 275.75,-51.01 166.42,-40.74"/>
<polygon fill="black" stroke="black" points="166.97,-37.27 156.69,-39.84 166.32,-44.24 166.97,-37.27"/>
<text xml:space="preserve" text-anchor="middle" x="512.25" y="-256.05" font-family="Arial" font-size="11.00"> executedOn </text>
<text xml:space="preserve" text-anchor="middle" x="512.25" y="-242.55" font-family="Arial" font-size="11.00"> «only» &#160;</text>
</g>
<!-- Ndab9eac798d8462ba480148cb2cbc211 -->
<g id="node10" class="node">
<title>Ndab9eac798d8462ba480148cb2cbc211</title>
<polygon fill="lightyellow" stroke="none" points="153.62,-639.88 153.62,-658.12 213.12,-658.12 213.12,-639.88 153.62,-639.88"/>
<text xml:space="preserve" text-anchor="start" x="155.62" y="-644.73" font-family="Arial" font-size="12.00">«unionOf»</text>
<polygon fill="none" stroke="black" points="153.62,-639.88 153.62,-658.12 213.12,-658.12 213.12,-639.88 153.62,-639.88"/>
</g>
<!-- Contract&#45;&gt;Ndab9eac798d8462ba480148cb2cbc211 -->
<g id="edge15" class="edge">
<title>Contract&#45;&gt;Ndab9eac798d8462ba480148cb2cbc211</title>
<path fill="none" stroke="black" d="M247.2,-567.82C240.59,-573.3 233.53,-579.61 227.62,-586 217.55,-596.89 207.81,-610.13 200.05,-621.58"/>
<polygon fill="black" stroke="black" points="197.2,-619.54 194.61,-629.82 203.04,-623.4 197.2,-619.54"/>
<text xml:space="preserve" text-anchor="middle" x="252" y="-602.55" font-family="Arial" font-size="11.00"> hasParty </text>
<text xml:space="preserve" text-anchor="middle" x="252" y="-589.05" font-family="Arial" font-size="11.00"> «min 2» &#160;</text>
</g>
<!-- Invis&#45;&gt;agreement__Agreement -->
<!-- cdmOrg__Organization -->
<g id="node5" class="node">
<title>cdmOrg__Organization</title>
<polygon fill="lightgray" stroke="none" points="30.25,-343.88 30.25,-360.12 148.5,-360.12 148.5,-343.88 30.25,-343.88"/>
<text xml:space="preserve" text-anchor="start" x="31.25" y="-347.73" font-family="Arial" font-size="12.00">cdmOrg::Organization</text>
<polygon fill="none" stroke="black" points="29.25,-342.88 29.25,-361.12 149.5,-361.12 149.5,-342.88 29.25,-342.88"/>
</g>
<!-- agreement__Agreement&#45;&gt;cdmOrg__Organization -->
<!-- cdmOrg__Organization&#45;&gt;ContractualElement -->
<!-- ContractualElement&#45;&gt;person__Person -->
<!-- person__Person&#45;&gt;time__Interval -->
<!-- time__Interval&#45;&gt;time__TemporalEntity -->
<!-- Ndab9eac798d8462ba480148cb2cbc211&#45;&gt;cdmOrg__Organization -->
<g id="edge13" class="edge">
<title>Ndab9eac798d8462ba480148cb2cbc211&#45;&gt;cdmOrg__Organization</title>
<path fill="none" stroke="black" stroke-dasharray="1,5" d="M153.96,-637.8C109.76,-620.53 28.81,-580.73 4.62,-514 -13.86,-463.02 30.55,-408.02 61.82,-377.31"/>
<polygon fill="black" stroke="black" points="63.91,-380.16 68.74,-370.72 59.08,-375.09 63.91,-380.16"/>
<text xml:space="preserve" text-anchor="middle" x="24.5" y="-496.8" font-family="Arial" font-size="11.00">member</text>
</g>
<!-- Ndab9eac798d8462ba480148cb2cbc211&#45;&gt;person__Person -->
<g id="edge14" class="edge">
<title>Ndab9eac798d8462ba480148cb2cbc211&#45;&gt;person__Person</title>
<path fill="none" stroke="black" stroke-dasharray="1,5" d="M182.65,-631.13C179.39,-555.87 165.89,-253.66 158.37,-235 154.14,-224.49 147,-214.55 139.6,-206.14"/>
<polygon fill="black" stroke="black" points="142.34,-203.95 132.94,-199.07 137.25,-208.75 142.34,-203.95"/>
<text xml:space="preserve" text-anchor="middle" x="192" y="-397.8" font-family="Arial" font-size="11.00">member</text>
</g>
</g>
</svg>
