<?xml version="1.0" encoding="UTF-8" standalone="no"?>
<!DOCTYPE svg PUBLIC "-//W3C//DTD SVG 1.1//EN"
 "http://www.w3.org/Graphics/SVG/1.1/DTD/svg11.dtd">
<!-- Generated by graphviz version 14.0.2 (20251019.1705)
 -->
<!-- Pages: 1 -->
<svg width="253pt" height="305pt"
 viewBox="0.00 0.00 253.00 305.00" xmlns="http://www.w3.org/2000/svg" xmlns:xlink="http://www.w3.org/1999/xlink">
<g id="graph0" class="graph" transform="scale(1 1) rotate(0) translate(4 301)">
<polygon fill="white" stroke="none" points="-4,4 -4,-301 249.24,-301 249.24,4 -4,4"/>
<g id="clust2" class="cluster">
<title>cluster_associated</title>
</g>
<!-- Wage -->
<g id="node1" class="node">
<title>Wage</title>
<g id="a_node1"><a xlink:href="../classes/Organization__Wage.md" xlink:title="&lt;TABLE&gt;">
<polygon fill="lightgray" stroke="none" points="178.25,-197.88 178.25,-214.12 211.75,-214.12 211.75,-197.88 178.25,-197.88"/>
<text xml:space="preserve" text-anchor="start" x="179.25" y="-201.72" font-family="Arial" font-size="12.00">Wage</text>
<polygon fill="none" stroke="black" points="177.25,-196.88 177.25,-215.12 212.75,-215.12 212.75,-196.88 177.25,-196.88"/>
</a>
</g>
</g>
<!-- Compensation -->
<g id="node2" class="node">
<title>Compensation</title>
<g id="a_node2"><a xlink:href="../_counters/Organization__Compensation.md" xlink:title="&lt;TABLE&gt;">
<polygon fill="lightgray" stroke="none" points="155,-270.88 155,-287.12 235,-287.12 235,-270.88 155,-270.88"/>
<text xml:space="preserve" text-anchor="start" x="156" y="-274.73" font-family="Arial" font-size="12.00">Compensation</text>
<polygon fill="none" stroke="black" points="154,-269.88 154,-288.12 236,-288.12 236,-269.88 154,-269.88"/>
</a>
</g>
</g>
<!-- Wage&#45;&gt;Compensation -->
<g id="edge1" class="edge">
<title>Wage&#45;&gt;Compensation</title>
<path fill="none" stroke="black" d="M195,-223.71C195,-231.47 195,-240.92 195,-249.74"/>
<polygon fill="none" stroke="black" points="191.5,-249.66 195,-259.66 198.5,-249.66 191.5,-249.66"/>
</g>
<!-- Invis -->
<!-- Wage&#45;&gt;Invis -->
<!-- cityunits__MonetaryValue -->
<g id="node4" class="node">
<title>cityunits__MonetaryValue</title>
<polygon fill="lightgray" stroke="none" points="19.5,-98.88 19.5,-115.12 150.5,-115.12 150.5,-98.88 19.5,-98.88"/>
<text xml:space="preserve" text-anchor="start" x="20.5" y="-102.72" font-family="Arial" font-size="12.00">cityunits::MonetaryValue</text>
<polygon fill="none" stroke="black" points="18.5,-97.88 18.5,-116.12 151.5,-116.12 151.5,-97.88 18.5,-97.88"/>
</g>
<!-- Wage&#45;&gt;cityunits__MonetaryValue -->
<g id="edge6" class="edge">
<title>Wage&#45;&gt;cityunits__MonetaryValue</title>
<path fill="none" stroke="black" d="M168.02,-190.02C166.67,-189.33 165.32,-188.65 164,-188 146.15,-179.21 138,-183.08 123,-170 112.04,-160.44 103.24,-146.92 96.89,-134.95"/>
<polygon fill="black" stroke="black" points="100.19,-133.72 92.61,-126.31 93.91,-136.83 100.19,-133.72"/>
<text xml:space="preserve" text-anchor="middle" x="150" y="-159.55" font-family="Arial" font-size="11.00"> hourlyPay </text>
<text xml:space="preserve" text-anchor="middle" x="150" y="-146.05" font-family="Arial" font-size="11.00"> «max 1» &#160;</text>
</g>
<!-- cityUnits__MonetaryValue -->
<g id="node5" class="node">
<title>cityUnits__MonetaryValue</title>
<polygon fill="lightgray" stroke="none" points="17.38,-25.88 17.38,-42.12 150.62,-42.12 150.62,-25.88 17.38,-25.88"/>
<text xml:space="preserve" text-anchor="start" x="18.38" y="-29.73" font-family="Arial" font-size="12.00">cityUnits::MonetaryValue</text>
<polygon fill="none" stroke="black" points="16.38,-24.88 16.38,-43.12 151.62,-43.12 151.62,-24.88 16.38,-24.88"/>
</g>
<!-- Wage&#45;&gt;cityUnits__MonetaryValue -->
<g id="edge5" class="edge">
<title>Wage&#45;&gt;cityUnits__MonetaryValue</title>
<path fill="none" stroke="black" d="M193.58,-188.11C190.82,-164.06 182.94,-119.49 161,-89 152.19,-76.75 139.7,-66.3 127.34,-57.96"/>
<polygon fill="black" stroke="black" points="129.56,-55.23 119.25,-52.8 125.8,-61.13 129.56,-55.23"/>
<text xml:space="preserve" text-anchor="middle" x="212.24" y="-110.05" font-family="Arial" font-size="11.00"> overtimePay </text>
<text xml:space="preserve" text-anchor="middle" x="212.24" y="-96.55" font-family="Arial" font-size="11.00"> «only» &#160;</text>
</g>
<!-- Invis&#45;&gt;cityunits__MonetaryValue -->
<!-- cityunits__MonetaryValue&#45;&gt;cityUnits__MonetaryValue -->
</g>
</svg>
